<svg width="19" height="20" viewBox="0 0 19 20" fill="none" xmlns="http://www.w3.org/2000/svg">
<path fill-rule="evenodd" clip-rule="evenodd" d="M14.9127 5C14.9445 4.92913 14.9594 4.85189 14.9563 4.77432H14.9824C14.8706 2.10591 12.6673 0 9.98737 0C7.30742 0 5.10414 2.10591 4.99231 4.77432C4.97913 4.84898 4.97913 4.92535 4.99231 5H4.91413C3.63264 5 2.26277 5.84597 1.86506 8.12007L1.08733 14.3147C0.450998 18.8629 2.79304 20 5.85095 20H14.1409C17.19 20 19.4613 18.3535 18.8957 14.3147L18.1268 8.12007C17.6584 5.90964 16.3327 5 15.0689 5H14.9127ZM13.4756 5C13.4478 4.92794 13.4331 4.85153 13.4321 4.77432C13.4321 2.85682 11.8723 1.30238 9.94817 1.30238C8.02406 1.30238 6.46426 2.85682 6.46426 4.77432C6.47745 4.84898 6.47745 4.92535 6.46426 5H13.4756ZM7.07942 10.1486C6.59132 10.1486 6.19563 9.74131 6.19563 9.23893C6.19563 8.73655 6.59132 8.32929 7.07942 8.32929C7.56752 8.32929 7.96321 8.73655 7.96321 9.23893C7.96321 9.74131 7.56752 10.1486 7.07942 10.1486ZM11.9844 9.23893C11.9844 9.74131 12.3801 10.1486 12.8682 10.1486C13.3563 10.1486 13.752 9.74131 13.752 9.23893C13.752 8.73655 13.3563 8.32929 12.8682 8.32929C12.3801 8.32929 11.9844 8.73655 11.9844 9.23893Z" fill="#7C7F93"/>
</svg>
