<svg width="21" height="20" viewBox="0 0 21 20" fill="none" xmlns="http://www.w3.org/2000/svg">
<path fill-rule="evenodd" clip-rule="evenodd" d="M3.5223 0H6.9023C8.3123 0 9.4423 1.15 9.4423 2.561V5.97C9.4423 7.39 8.3123 8.53 6.9023 8.53H3.5223C2.1223 8.53 0.9823 7.39 0.9823 5.97V2.561C0.9823 1.15 2.1223 0 3.5223 0ZM3.5223 11.4697H6.9023C8.3123 11.4697 9.4423 12.6107 9.4423 14.0307V17.4397C9.4423 18.8497 8.3123 19.9997 6.9023 19.9997H3.5223C2.1223 19.9997 0.9823 18.8497 0.9823 17.4397V14.0307C0.9823 12.6107 2.1223 11.4697 3.5223 11.4697ZM18.4424 0H15.0624C13.6524 0 12.5224 1.15 12.5224 2.561V5.97C12.5224 7.39 13.6524 8.53 15.0624 8.53H18.4424C19.8424 8.53 20.9824 7.39 20.9824 5.97V2.561C20.9824 1.15 19.8424 0 18.4424 0ZM15.0624 11.4697H18.4424C19.8424 11.4697 20.9824 12.6107 20.9824 14.0307V17.4397C20.9824 18.8497 19.8424 19.9997 18.4424 19.9997H15.0624C13.6524 19.9997 12.5224 18.8497 12.5224 17.4397V14.0307C12.5224 12.6107 13.6524 11.4697 15.0624 11.4697Z" fill="#E2698D"/>
</svg>
