<svg width="21" height="20" viewBox="0 0 21 20" fill="none" xmlns="http://www.w3.org/2000/svg">
<path fill-rule="evenodd" clip-rule="evenodd" d="M0.982422 10.015C0.982422 4.74712 5.19242 0 11.0024 0C16.6824 0 20.9824 4.65699 20.9824 9.98498C20.9824 16.1642 15.9424 20 10.9824 20C9.34242 20 7.52242 19.5593 6.06242 18.698C5.55242 18.3876 5.12242 18.1572 4.57242 18.3375L2.55242 18.9384C2.04242 19.0986 1.58242 18.698 1.73242 18.1572L2.40242 15.9139C2.51242 15.6034 2.49242 15.2729 2.33242 15.0125C1.47242 13.4301 0.982422 11.6975 0.982422 10.015ZM9.68242 10.015C9.68242 10.7261 10.2524 11.2969 10.9624 11.307C11.6724 11.307 12.2424 10.7261 12.2424 10.025C12.2424 9.31397 11.6724 8.74311 10.9624 8.74311C10.2624 8.7331 9.68242 9.31397 9.68242 10.015ZM14.2924 10.025C14.2924 10.7261 14.8624 11.307 15.5724 11.307C16.2824 11.307 16.8524 10.7261 16.8524 10.025C16.8524 9.31397 16.2824 8.74311 15.5724 8.74311C14.8624 8.74311 14.2924 9.31397 14.2924 10.025ZM6.35242 11.307C5.65242 11.307 5.07242 10.7261 5.07242 10.025C5.07242 9.31397 5.64242 8.74311 6.35242 8.74311C7.06242 8.74311 7.63242 9.31397 7.63242 10.025C7.63242 10.7261 7.06242 11.2969 6.35242 11.307Z" fill="#7C7F93"/>
</svg>
