<svg width="19" height="20" viewBox="0 0 19 20" fill="none" xmlns="http://www.w3.org/2000/svg">
<path fill-rule="evenodd" clip-rule="evenodd" d="M5.79242 0H14.1734C17.2624 0 18.9824 1.78 18.9824 4.83V15.16C18.9824 18.26 17.2624 20 14.1734 20H5.79242C2.75242 20 0.982422 18.26 0.982422 15.16V4.83C0.982422 1.78 2.75242 0 5.79242 0ZM6.06242 4.66V4.65H9.05142C9.48242 4.65 9.83242 5 9.83242 5.429C9.83242 5.87 9.48242 6.22 9.05142 6.22H6.06242C5.63142 6.22 5.28242 5.87 5.28242 5.44C5.28242 5.01 5.63142 4.66 6.06242 4.66ZM6.06242 10.74H13.9024C14.3324 10.74 14.6824 10.39 14.6824 9.96C14.6824 9.53 14.3324 9.179 13.9024 9.179H6.06242C5.63142 9.179 5.28242 9.53 5.28242 9.96C5.28242 10.39 5.63142 10.74 6.06242 10.74ZM6.06242 15.31H13.9024C14.3014 15.27 14.6024 14.929 14.6024 14.53C14.6024 14.12 14.3014 13.78 13.9024 13.74H6.06242C5.76242 13.71 5.47242 13.85 5.31242 14.11C5.15242 14.36 5.15242 14.69 5.31242 14.95C5.47242 15.2 5.76242 15.35 6.06242 15.31Z" fill="#7C7F93"/>
</svg>
