<svg width="140" height="140" viewBox="0 0 140 140" fill="none" xmlns="http://www.w3.org/2000/svg">
<path d="M70.0617 135.52C106.124 135.52 135.358 118.641 135.358 97.8208C135.358 77.0001 106.124 60.1216 70.0617 60.1216C33.9997 60.1216 4.76569 77.0001 4.76569 97.8208C4.76569 118.641 33.9997 135.52 70.0617 135.52Z" fill="#FFF6F6"/>
<path d="M29.6044 112.98C36.9173 112.98 42.8456 109.615 42.8456 105.465C42.8456 101.314 36.9173 97.9496 29.6044 97.9496C22.2915 97.9496 16.3632 101.314 16.3632 105.465C16.3632 109.615 22.2915 112.98 29.6044 112.98Z" fill="#CDB5C1"/>
<path d="M45.85 108.928C53.1629 108.928 59.0912 105.564 59.0912 101.413C59.0912 97.2627 53.1629 93.898 45.85 93.898C38.5371 93.898 32.6088 97.2627 32.6088 101.413C32.6088 105.564 38.5371 108.928 45.85 108.928Z" fill="#CDB5C1"/>
<path d="M92.4813 106.708C99.7942 106.708 105.723 103.343 105.723 99.1928C105.723 95.0423 99.7942 91.6776 92.4813 91.6776C85.1684 91.6776 79.2401 95.0423 79.2401 99.1928C79.2401 103.343 85.1684 106.708 92.4813 106.708Z" fill="#CDB5C1"/>
<path d="M68.5972 106.579C75.9101 106.579 81.8384 103.215 81.8384 99.064C81.8384 94.9135 75.9101 91.5488 68.5972 91.5488C61.2842 91.5488 55.356 94.9135 55.356 99.064C55.356 103.215 61.2842 106.579 68.5972 106.579Z" fill="#CDB5C1"/>
<path d="M109.096 112.062C116.409 112.062 122.338 108.697 122.338 104.546C122.338 100.396 116.409 97.0312 109.096 97.0312C101.784 97.0312 95.8553 100.396 95.8553 104.546C95.8553 108.697 101.784 112.062 109.096 112.062Z" fill="#CDB5C1"/>
<path d="M19.7821 104.72L21.9381 103.488C21.9381 103.488 22.9741 97.7872 22.2013 92.8872C21.1121 85.9964 16.4221 83.6192 14.7169 84.3052C13.0117 84.9912 12.6141 87.0212 15.6801 91C17.5057 93.352 19.8409 98.3164 19.7821 104.72Z" fill="#CCCCCC"/>
<g opacity="0.15">
<path opacity="0.15" d="M19.7821 104.72L21.9381 103.488C21.9381 103.488 22.9741 97.7872 22.2013 92.8872C21.1121 85.9964 16.4221 83.6192 14.7169 84.3052C13.0117 84.9912 12.6141 87.0212 15.6801 91C17.5057 93.352 19.8409 98.3164 19.7821 104.72Z" fill="black"/>
</g>
<path d="M20.5633 101.973H20.5437C20.5236 101.97 20.5043 101.964 20.4869 101.954C20.4694 101.943 20.4541 101.93 20.4419 101.914C20.4297 101.898 20.4208 101.879 20.4156 101.86C20.4105 101.84 20.4093 101.82 20.4121 101.8C21.3025 95.3596 18.7097 88.284 15.7949 85.4336C15.7806 85.4195 15.7692 85.4027 15.7614 85.3842C15.7537 85.3657 15.7497 85.3458 15.7497 85.3258C15.7497 85.3057 15.7537 85.2858 15.7614 85.2673C15.7692 85.2488 15.7806 85.232 15.7949 85.218C15.8092 85.2036 15.8262 85.1921 15.8449 85.1844C15.8637 85.1766 15.8838 85.1725 15.9041 85.1725C15.9244 85.1725 15.9445 85.1766 15.9632 85.1844C15.9819 85.1921 15.999 85.2036 16.0133 85.218C18.9813 88.1188 21.6133 95.298 20.7201 101.844C20.714 101.881 20.6947 101.915 20.6659 101.938C20.637 101.962 20.6006 101.974 20.5633 101.973Z" fill="white"/>
<path d="M13.7985 108.167C13.4569 108.363 12.7569 107.934 12.4853 107.755C12.0247 107.44 11.6526 107.012 11.4045 106.512C11.1239 105.946 11.0261 105.307 11.1245 104.684C11.1797 104.354 11.2574 104.028 11.3569 103.709L11.6369 102.766C11.7469 102.46 11.7945 102.135 11.7769 101.811C11.6929 101.167 11.1189 100.713 10.5981 100.324C10.0213 99.89 9.42208 99.3216 9.42488 98.5432C9.46769 97.9392 9.70885 97.3663 10.1109 96.9136C10.4805 96.4432 10.9229 96.026 11.2589 95.5304C11.5243 95.184 11.6627 94.757 11.6509 94.3208C11.6146 94.0537 11.5251 93.7967 11.3877 93.5648C11.1077 93.0608 10.7493 92.596 10.5477 92.0528C10.3461 91.5096 10.3853 90.832 10.8081 90.44C10.9979 90.2985 11.214 90.1963 11.4439 90.1396C11.6737 90.0828 11.9126 90.0726 12.1465 90.1096C12.5887 90.1624 13.014 90.3115 13.3925 90.5464C14.6273 91.2324 15.3329 92.6968 16.6433 93.2232C17.1629 93.3858 17.6922 93.5157 18.2281 93.6124C18.7545 93.7524 19.2921 94.0212 19.5357 94.5084C20.0173 95.4688 19.1241 96.6532 19.4629 97.6724C19.7625 98.574 20.6389 98.9212 21.1429 99.7332C21.3439 100.092 21.4253 100.506 21.3753 100.915C21.3311 101.605 21.1622 102.281 20.8769 102.911C20.5571 103.54 20.1912 104.145 19.7821 104.72C19.7625 104.72 13.8517 108.139 13.7985 108.167Z" fill="#CCCCCC"/>
<path d="M17.2986 106.302C17.2782 106.302 17.2581 106.297 17.2396 106.289C17.221 106.281 17.2043 106.269 17.1904 106.254C17.1765 106.239 17.1658 106.221 17.1589 106.202C17.152 106.183 17.149 106.163 17.1502 106.142C17.4022 100.038 14.5266 93.296 12.435 91.3388C12.4066 91.3095 12.3907 91.2703 12.3907 91.2296C12.3907 91.1888 12.4066 91.1496 12.435 91.1204C12.4493 91.106 12.4663 91.0945 12.485 91.0868C12.5038 91.079 12.5239 91.075 12.5442 91.075C12.5645 91.075 12.5846 91.079 12.6033 91.0868C12.622 91.0945 12.6391 91.106 12.6534 91.1204C14.787 93.1168 17.7214 99.9684 17.4638 106.159C17.4627 106.18 17.4576 106.199 17.4486 106.218C17.4396 106.236 17.4271 106.252 17.4116 106.266C17.3962 106.279 17.3782 106.289 17.3588 106.295C17.3394 106.302 17.3189 106.304 17.2986 106.302Z" fill="white"/>
<path d="M16.3858 99.0892H16.341C14.8941 98.6897 13.4077 98.4502 11.9086 98.3752C11.8884 98.3741 11.8685 98.3691 11.8503 98.3603C11.832 98.3516 11.8156 98.3393 11.8021 98.3242C11.7886 98.3091 11.7782 98.2915 11.7714 98.2724C11.7647 98.2533 11.7619 98.233 11.763 98.2128C11.7629 98.1924 11.7671 98.1723 11.7753 98.1537C11.7834 98.135 11.7954 98.1183 11.8105 98.1046C11.8255 98.0908 11.8433 98.0804 11.8626 98.074C11.8819 98.0676 11.9023 98.0652 11.9226 98.0672C13.4474 98.1443 14.9591 98.3885 16.4306 98.7952C16.4647 98.8069 16.4936 98.8301 16.5123 98.8609C16.531 98.8917 16.5383 98.928 16.533 98.9637C16.5277 98.9993 16.51 99.0319 16.4831 99.0559C16.4562 99.0798 16.4218 99.0936 16.3858 99.0948V99.0892Z" fill="white"/>
<path d="M121.744 103.398L118.44 101.64C118.44 101.64 118.188 96.5664 118.583 92.5456C119.143 86.898 123.343 80.3376 127.691 81.9336C132.04 83.5296 125.695 89.2836 124.284 94.0744C122.873 98.8652 121.744 103.398 121.744 103.398Z" fill="#CCCCCC"/>
<path opacity="0.3" d="M121.744 103.398L118.44 101.64C118.44 101.64 118.188 96.5664 118.583 92.5456C119.143 86.898 123.343 80.3376 127.691 81.9336C132.04 83.5296 125.695 89.2836 124.284 94.0744C122.873 98.8652 121.744 103.398 121.744 103.398Z" fill="black"/>
<path d="M120.12 102.808C120.139 102.807 120.158 102.802 120.176 102.794C120.193 102.786 120.209 102.775 120.222 102.761C120.235 102.747 120.245 102.731 120.251 102.713C120.258 102.695 120.261 102.676 120.26 102.656C119.835 90.104 126.084 83.79 126.14 83.7284C126.168 83.7013 126.184 83.6642 126.185 83.6254C126.185 83.5865 126.17 83.549 126.143 83.5212C126.116 83.4933 126.079 83.4774 126.04 83.4769C126.001 83.4764 125.964 83.4913 125.936 83.5184C125.871 83.5828 119.532 89.9864 119.961 102.668C119.962 102.687 119.967 102.707 119.975 102.724C119.984 102.742 119.996 102.758 120.011 102.771C120.026 102.784 120.043 102.794 120.062 102.8C120.081 102.807 120.1 102.809 120.12 102.808Z" fill="white"/>
<path d="M123.447 104.398L121.722 103.404C121.456 100.567 121.822 97.7072 122.794 95.0292C124.393 90.692 128.523 88.3259 130.424 88.9727C132.743 89.7623 132.757 91.9827 131.914 93.4528C130.917 95.1664 124.701 99.5204 123.447 104.398Z" fill="#CCCCCC"/>
<path opacity="0.1" d="M123.447 104.398L121.722 103.404C121.456 100.567 121.822 97.7072 122.794 95.0292C124.393 90.692 128.523 88.3259 130.424 88.9727C132.743 89.7623 132.757 91.9827 131.914 93.4528C130.917 95.1664 124.701 99.5204 123.447 104.398Z" fill="black"/>
<path d="M122.537 104.02C122.575 104.02 122.612 104.005 122.64 103.977C122.667 103.95 122.682 103.913 122.682 103.874C122.649 95.9364 130.099 90.5744 130.175 90.5212C130.206 90.4977 130.227 90.463 130.234 90.4244C130.24 90.3857 130.231 90.3461 130.209 90.314C130.197 90.2983 130.183 90.2849 130.167 90.2747C130.151 90.2645 130.132 90.2576 130.113 90.2545C130.094 90.2514 130.075 90.252 130.056 90.2565C130.037 90.2609 130.02 90.2691 130.004 90.2804C129.929 90.3336 122.355 95.788 122.388 103.874C122.388 103.894 122.392 103.913 122.4 103.931C122.407 103.949 122.418 103.965 122.432 103.978C122.446 103.992 122.462 104.003 122.48 104.01C122.498 104.017 122.517 104.02 122.537 104.02Z" fill="white"/>
<path d="M88.0573 54.7064C91.9409 47.3284 93.9933 42.7224 91.8989 40.6756C89.5301 42.4116 88.9589 43.0528 87.8333 46.3008C87.8333 46.3008 86.5733 49.91 84.7533 53.9336C83.9133 55.8208 82.7933 58.184 81.1497 60.2028C80.9122 60.4385 80.6047 60.5908 80.2733 60.6368C79.4753 60.788 79.0469 61.1016 78.3581 61.4208C77.8205 61.67 77.4621 61.642 77.4593 61.7876C77.468 61.954 77.542 62.1102 77.6652 62.2224C77.7883 62.3346 77.9508 62.3937 78.1173 62.3868C78.4883 62.3857 78.8578 62.3396 79.2177 62.2496C78.7971 62.9175 78.2315 63.4821 77.5629 63.9016C76.2133 64.6576 75.8829 65.324 77.6553 66.0576C78.7753 66.5168 80.4189 66.1276 82.3257 63.938C82.8857 63.308 83.6949 61.9388 84.2857 61.054C86.0273 58.422 87.2789 56.182 88.0573 54.7064Z" fill="#9E6767"/>
<path d="M92.9602 40.4096C92.1243 40.3417 91.2903 40.562 90.597 41.034C89.3762 41.832 88.8134 43.2152 88.0378 45.0632C87.097 47.3032 86.593 48.9132 86.593 48.9132C86.593 48.9132 87.657 50.8564 90.597 50.6716L93.0834 45.9116L92.9602 40.4096Z" fill="#E0E0E0"/>
<path d="M98.4789 97.6724C98.6533 97.177 98.7396 96.6548 98.7337 96.1296V94.01H101.321V96.4096V96.474H101.307C101.184 97.0172 98.1653 98.4312 98.4789 97.6724Z" fill="#9E6767"/>
<path d="M101.878 97.342C101.951 97.3252 102.158 97.93 102.08 98.182C101.864 98.6234 101.534 98.9993 101.125 99.2712C100.699 99.596 100.355 100.017 100.123 100.5C99.7406 101.143 99.2274 101.699 98.6163 102.13C98.2129 102.419 97.7524 102.619 97.2656 102.715C96.7788 102.812 96.277 102.803 95.7938 102.69C94.7578 102.427 94.6319 102.161 94.6151 101.774L101.878 97.342Z" fill="#37474F"/>
<path d="M96.7066 102.276C97.7162 102.086 98.638 101.576 99.3358 100.822C99.7838 100.313 100.081 99.7024 100.403 99.2936C100.725 98.8848 101.663 98.1736 101.847 97.6976C101.945 97.4372 101.847 97.0368 101.646 96.5776C101.366 95.9532 101.321 95.7936 101.321 95.7936C101.232 95.8313 101.156 95.8959 101.105 95.9784C101.023 96.1531 100.96 96.3362 100.918 96.5244C100.901 96.6407 100.84 96.746 100.747 96.8184C100.668 96.853 100.581 96.8656 100.495 96.8548C100.288 96.8548 99.935 96.8044 99.8286 97.0424C99.8146 96.9395 99.7798 96.8405 99.7264 96.7515C99.6729 96.6625 99.602 96.5852 99.5178 96.5244C99.2014 96.3004 98.3558 95.914 98.1178 96.502C97.8378 97.2132 97.3926 98.182 96.7178 98.742C95.8918 99.4392 94.9258 100.08 94.6206 100.884C94.5047 101.167 94.5047 101.483 94.6206 101.766C95.0238 102.2 96.1718 102.351 96.7066 102.276Z" fill="#CCCCCC"/>
<path opacity="0.5" d="M96.7066 102.276C97.7162 102.086 98.638 101.576 99.3358 100.822C99.7838 100.313 100.081 99.7024 100.403 99.2936C100.725 98.8848 101.663 98.1736 101.847 97.6976C101.945 97.4372 101.847 97.0368 101.646 96.5776C101.366 95.9532 101.321 95.7936 101.321 95.7936C101.232 95.8313 101.156 95.8959 101.105 95.9784C101.023 96.1531 100.96 96.3362 100.918 96.5244C100.901 96.6407 100.84 96.746 100.747 96.8184C100.668 96.853 100.581 96.8656 100.495 96.8548C100.288 96.8548 99.935 96.8044 99.8286 97.0424C99.8146 96.9395 99.7798 96.8405 99.7264 96.7515C99.6729 96.6625 99.602 96.5852 99.5178 96.5244C99.2014 96.3004 98.3558 95.914 98.1178 96.502C97.8378 97.2132 97.3926 98.182 96.7178 98.742C95.8918 99.4392 94.9258 100.08 94.6206 100.884C94.5047 101.167 94.5047 101.483 94.6206 101.766C95.0238 102.2 96.1718 102.351 96.7066 102.276Z" fill="black"/>
<path d="M99.3498 97.3896C98.9114 97.1329 98.4102 97.003 97.9022 97.0144C97.8383 97.0691 97.7862 97.1364 97.7491 97.212C97.712 97.2875 97.6908 97.3699 97.6866 97.454C97.6866 97.454 98.1122 97.3084 99.1314 97.8012C99.186 97.8289 99.2492 97.8348 99.3079 97.8176C99.3667 97.8004 99.4167 97.7615 99.4478 97.7088C99.4478 97.692 99.4618 97.6752 99.4674 97.6556C99.4816 97.6045 99.4776 97.5501 99.4561 97.5016C99.4347 97.4531 99.3971 97.4135 99.3498 97.3896V97.3896Z" fill="#F5F5F5"/>
<path d="M98.9579 98.2996C98.5602 97.9437 98.0409 97.7542 97.5075 97.7704C97.4394 97.8126 97.3812 97.869 97.3367 97.9356C97.2923 98.0023 97.2627 98.0777 97.2499 98.1568C97.2499 98.1568 97.7539 98.0476 98.6779 98.6608C98.7063 98.6802 98.7386 98.6931 98.7726 98.6987C98.8065 98.7042 98.8413 98.7022 98.8744 98.6929C98.9075 98.6835 98.9381 98.667 98.9642 98.6446C98.9902 98.6221 99.011 98.5942 99.0251 98.5628C99.0429 98.5174 99.046 98.4676 99.0339 98.4203C99.0219 98.3731 98.9953 98.3309 98.9579 98.2996V98.2996Z" fill="#F5F5F5"/>
<path d="M98.3139 99.5008C98.3418 99.4581 98.3545 99.4072 98.3499 99.3564C98.3453 99.3056 98.3237 99.2578 98.2887 99.2208C98.1216 99.0204 97.9145 98.8571 97.6807 98.7414C97.4468 98.6256 97.1913 98.5601 96.9307 98.5488C96.8518 98.5731 96.7792 98.6146 96.7182 98.6703C96.6572 98.726 96.6093 98.7944 96.5779 98.8708C96.8439 98.8784 97.1055 98.9408 97.3464 99.054C97.5873 99.1672 97.8022 99.3288 97.9779 99.5288C97.9989 99.5517 98.0244 99.57 98.0528 99.5825C98.0813 99.5951 98.112 99.6015 98.1431 99.6015C98.1741 99.6015 98.2049 99.5951 98.2333 99.5825C98.2618 99.57 98.2873 99.5517 98.3083 99.5288L98.3139 99.5008Z" fill="#F5F5F5"/>
<path d="M88.9113 94.7408V92.6156H91.504V95.0208V95.0852H91.49C91.42 95.3904 88.9113 96.1212 88.9113 96.1212V94.7408Z" fill="#9E6767"/>
<path d="M92.0586 95.676C92.1314 95.6592 92.3526 96.2612 92.2602 96.502C92.0453 96.944 91.7168 97.3208 91.3082 97.594C90.8805 97.9171 90.5359 98.3376 90.303 98.8204C89.9229 99.4656 89.4093 100.022 88.7966 100.453C88.3936 100.743 87.9331 100.943 87.4462 101.039C86.9593 101.136 86.4573 101.127 85.9742 101.013C84.9382 100.752 84.8122 100.486 84.7954 100.097L92.0586 95.676Z" fill="#37474F"/>
<path d="M86.887 100.61C87.8964 100.419 88.818 99.9099 89.5162 99.1564C89.9642 98.6468 90.261 98.0364 90.583 97.6276C90.905 97.2188 91.843 96.5076 92.0278 96.0288C92.1258 95.7684 92.0278 95.368 91.8262 94.9088C91.5462 94.2844 91.5014 94.1248 91.5014 94.1248C91.4115 94.163 91.336 94.2287 91.2858 94.3124C91.203 94.4865 91.141 94.6698 91.101 94.8584C91.0798 94.97 91.0179 95.0698 90.9274 95.1384C90.849 95.1758 90.7612 95.1885 90.6754 95.1748C90.4682 95.1748 90.1154 95.1244 90.009 95.3652C89.9952 95.2619 89.9605 95.1625 89.907 95.0729C89.8536 94.9834 89.7826 94.9057 89.6982 94.8444C89.3818 94.6204 88.5362 94.234 88.2982 94.822C88.0182 95.536 87.573 96.502 86.8982 97.062C86.075 97.7592 85.1062 98.4004 84.801 99.2012C84.6854 99.4839 84.6854 99.8006 84.801 100.083C85.2042 100.545 86.3522 100.682 86.887 100.61Z" fill="#CCCCCC"/>
<path opacity="0.5" d="M86.887 100.61C87.8964 100.419 88.818 99.9099 89.5162 99.1564C89.9642 98.6468 90.261 98.0364 90.583 97.6276C90.905 97.2188 91.843 96.5076 92.0278 96.0288C92.1258 95.7684 92.0278 95.368 91.8262 94.9088C91.5462 94.2844 91.5014 94.1248 91.5014 94.1248C91.4115 94.163 91.336 94.2287 91.2858 94.3124C91.203 94.4865 91.141 94.6698 91.101 94.8584C91.0798 94.97 91.0179 95.0698 90.9274 95.1384C90.849 95.1758 90.7612 95.1885 90.6754 95.1748C90.4682 95.1748 90.1154 95.1244 90.009 95.3652C89.9952 95.2619 89.9605 95.1625 89.907 95.0729C89.8536 94.9834 89.7826 94.9057 89.6982 94.8444C89.3818 94.6204 88.5362 94.234 88.2982 94.822C88.0182 95.536 87.573 96.502 86.8982 97.062C86.075 97.7592 85.1062 98.4004 84.801 99.2012C84.6854 99.4839 84.6854 99.8006 84.801 100.083C85.2042 100.545 86.3522 100.682 86.887 100.61Z" fill="black"/>
<path d="M89.5303 95.7208C89.092 95.4637 88.5907 95.3338 88.0827 95.3456C88.0191 95.4007 87.9672 95.468 87.9302 95.5435C87.8932 95.619 87.8717 95.7012 87.8671 95.7852C87.8671 95.7852 88.2927 95.6424 89.3119 96.1324C89.3663 96.1608 89.4297 96.167 89.4887 96.1498C89.5476 96.1326 89.5977 96.0932 89.6283 96.04C89.637 96.0241 89.6435 96.0072 89.6479 95.9896C89.6622 95.9381 89.6583 95.8832 89.6369 95.8343C89.6154 95.7853 89.5778 95.7452 89.5303 95.7208V95.7208Z" fill="#F5F5F5"/>
<path d="M89.1382 96.6336C88.7413 96.2762 88.2218 96.0856 87.6878 96.1016C87.6203 96.1451 87.5625 96.2021 87.5181 96.2691C87.4738 96.3361 87.4439 96.4116 87.4302 96.4908C87.4302 96.4908 87.9342 96.3816 88.8582 96.9948C88.8868 97.0137 88.9191 97.0262 88.9529 97.0315C88.9868 97.0368 89.0214 97.0347 89.0543 97.0254C89.0873 97.0161 89.1178 96.9998 89.1439 96.9776C89.17 96.9554 89.191 96.9279 89.2054 96.8968C89.2242 96.8516 89.2277 96.8015 89.2156 96.754C89.2035 96.7066 89.1764 96.6643 89.1382 96.6336V96.6336Z" fill="#F5F5F5"/>
<path d="M88.4942 97.8348C88.5221 97.7921 88.5348 97.7412 88.5302 97.6904C88.5257 97.6396 88.5041 97.5918 88.469 97.5548C88.3025 97.3542 88.096 97.1906 87.8626 97.0744C87.6293 96.9582 87.3742 96.892 87.1138 96.88C87.0344 96.904 86.9613 96.9453 86.8998 97.001C86.8383 97.0567 86.79 97.1253 86.7582 97.202C87.0243 97.2096 87.2859 97.272 87.5268 97.3852C87.7676 97.4984 87.9826 97.66 88.1582 97.86C88.179 97.8833 88.2044 97.9019 88.2329 97.9147C88.2614 97.9275 88.2922 97.9341 88.3234 97.9341C88.3546 97.9341 88.3855 97.9275 88.414 97.9147C88.4424 97.9019 88.4679 97.8833 88.4886 97.86L88.4942 97.8348Z" fill="#F5F5F5"/>
<path d="M103.32 28.7196C103.086 28.1624 102.641 27.7207 102.082 27.4913C101.523 27.2619 100.896 27.2636 100.338 27.496C100.259 27.5301 100.182 27.5694 100.109 27.6136C100.116 27.52 100.111 27.426 100.095 27.3336C100.068 27.2063 100.015 27.0858 99.9405 26.9794C99.8656 26.873 99.7698 26.783 99.6589 26.7149C99.5481 26.6468 99.4245 26.6019 99.2958 26.5831C99.1671 26.5644 99.0359 26.572 98.9102 26.6056L99.249 28.2212C98.3624 27.5206 97.2653 27.1398 96.1354 27.1404H94.9846C93.6479 27.1404 92.3659 27.6714 91.4208 28.6166C90.4756 29.5618 89.9446 30.8437 89.9446 32.1804V33.0204C89.9446 34.3511 90.4732 35.6274 91.4142 36.5684C92.3552 37.5094 93.6314 38.038 94.9622 38.038H96.1718C97.5025 38.038 98.7788 37.5094 99.7198 36.5684C100.661 35.6274 101.189 34.3511 101.189 33.0204V32.1804C101.189 32.046 101.189 31.9004 101.17 31.7828C101.481 31.8727 101.814 31.8437 102.105 31.7016C102.661 31.4668 103.101 31.021 103.329 30.4619C103.557 29.9029 103.554 29.2762 103.32 28.7196V28.7196Z" fill="#263238"/>
<path d="M101.674 56.1904C102.668 61.4936 101.371 76.4932 101.371 76.4932C101.433 77.2296 102.416 78.8732 102.348 81.8132C102.262 85.6548 101.486 94.7492 101.486 94.7492C101.03 94.9495 100.538 95.0529 100.04 95.0529C99.542 95.0529 99.0495 94.9495 98.5937 94.7492C98.5937 94.7492 96.7513 80.9984 96.2697 77.1932C95.8525 73.8752 95.0489 66.5756 95.0489 66.5756L92.7641 77.1764C92.7641 77.1764 93.4809 79.6432 93.4977 81.0656C93.5341 84.0028 91.5377 93.1056 91.5377 93.1056C91.5377 93.1056 90.6137 93.4444 88.8609 93.1868C88.8609 93.1868 88.0937 79.3632 87.8921 76.6668C87.5505 72.1392 88.7545 58.016 89.5721 55.3364L101.674 56.1904Z" fill="#CCCCCC"/>
<path opacity="0.3" d="M101.674 56.1904C102.668 61.4936 101.371 76.4932 101.371 76.4932C101.433 77.2296 102.416 78.8732 102.348 81.8132C102.262 85.6548 101.486 94.7492 101.486 94.7492C101.03 94.9495 100.538 95.0529 100.04 95.0529C99.542 95.0529 99.0495 94.9495 98.5937 94.7492C98.5937 94.7492 96.7513 80.9984 96.2697 77.1932C95.8525 73.8752 95.0489 66.5756 95.0489 66.5756L92.7641 77.1764C92.7641 77.1764 93.4809 79.6432 93.4977 81.0656C93.5341 84.0028 91.5377 93.1056 91.5377 93.1056C91.5377 93.1056 90.6137 93.4444 88.8609 93.1868C88.8609 93.1868 88.0937 79.3632 87.8921 76.6668C87.5505 72.1392 88.7545 58.016 89.5721 55.3364L101.674 56.1904Z" fill="white"/>
<path opacity="0.2" d="M95.049 66.5644L94.3742 62.3644C94.3742 62.3644 91.5238 61.7764 90.2302 60.5584C90.2302 60.5584 91.5882 62.2384 93.5902 62.7984L94.3602 66.0296L93.0358 75.8436L95.049 66.5644Z" fill="black"/>
<path d="M97.5773 40.5832L99.4225 40.6756L101.24 42.7364C101.383 43.9124 101.8 45.4272 101.425 46.5472L100.162 51.7244C100.162 51.7244 101.335 54.0736 101.674 56.2044C97.0201 58.8028 90.9833 57.2376 89.5833 55.342C89.5245 54.9416 89.8829 51.7972 90.1069 49.742C89.2865 47.6868 89.0709 46.382 89.4153 45.024C90.0565 42.504 91.9549 40.3256 93.0553 40.4152L97.5773 40.5832Z" fill="#818181"/>
<path d="M98.9437 43.3636C98.945 44.9779 99.2469 46.5779 99.8341 48.0816C100.24 49 99.1201 51.1924 98.0001 52.122C96.8801 53.0516 98.9969 53.5472 99.5233 54.082C100.05 54.6168 100.741 57.372 95.9897 57.5624C97.9737 57.6097 99.9358 57.1387 101.682 56.196C101.343 54.0792 100.17 51.716 100.17 51.716L101.433 46.5388C101.741 45.6484 101.531 44.5032 101.36 43.4812L100.59 42.9716L98.9437 43.3636Z" fill="#CCCCCC"/>
<path d="M91.7449 29.54C91.1149 29.9124 90.3449 31.5 90.4149 34.8096C90.4793 37.6096 91.3921 38.3152 91.8485 38.5168C92.3049 38.7184 93.1897 38.5952 94.0465 38.4524V40.4432C94.0465 40.4432 92.8621 41.5156 92.9265 42.2884C92.9909 43.0612 94.6401 43.246 95.7489 42.49C96.468 41.9721 97.085 41.3256 97.5689 40.5832V36.1032C97.7616 36.258 98.0002 36.3447 98.2473 36.3498C98.4945 36.3548 98.7364 36.278 98.9353 36.1312C99.7753 35.5712 99.8397 34.2916 99.2881 33.7316C98.7365 33.1716 97.7901 33.53 97.5689 34.2916C97.5689 34.2916 97.3869 31.9396 95.5641 30.9316C93.7413 29.9236 91.8653 30.6292 91.7449 29.54Z" fill="#9E6767"/>
<path d="M93.9655 33.6308C93.9621 33.6779 93.968 33.7252 93.9829 33.77C93.9978 33.8148 94.0214 33.8562 94.0524 33.8918C94.0833 33.9275 94.121 33.9567 94.1633 33.9777C94.2056 33.9987 94.2516 34.0112 94.2987 34.0144C94.3943 34.0167 94.487 33.9812 94.5566 33.9157C94.6263 33.8502 94.6674 33.76 94.6711 33.6644C94.6733 33.6181 94.6664 33.5718 94.6507 33.5281C94.635 33.4845 94.6108 33.4443 94.5796 33.41C94.5484 33.3757 94.5108 33.3479 94.4688 33.3281C94.4269 33.3083 94.3814 33.297 94.3351 33.2948C94.2888 33.2926 94.2424 33.2995 94.1988 33.3152C94.1552 33.3309 94.115 33.3551 94.0807 33.3863C94.0464 33.4175 94.0185 33.4551 93.9988 33.4971C93.979 33.539 93.9677 33.5845 93.9655 33.6308V33.6308Z" fill="#263238"/>
<path d="M94.1334 36.3244L93.0778 36.6604C93.0968 36.731 93.1298 36.7971 93.1749 36.8547C93.22 36.9123 93.2763 36.9602 93.3403 36.9955C93.4044 37.0308 93.4749 37.0528 93.5477 37.0601C93.6205 37.0675 93.694 37.0601 93.7638 37.0384C93.9062 36.9909 94.0245 36.8897 94.0935 36.7564C94.1625 36.6231 94.1769 36.4681 94.1334 36.3244V36.3244Z" fill="#874C4C"/>
<path d="M91.0002 33.6308C90.9968 33.6779 91.0027 33.7252 91.0176 33.77C91.0325 33.8148 91.0561 33.8562 91.0871 33.8918C91.1181 33.9275 91.1557 33.9567 91.198 33.9777C91.2403 33.9987 91.2863 34.0112 91.3334 34.0144C91.429 34.0167 91.5217 33.9812 91.5914 33.9157C91.6611 33.8502 91.7022 33.76 91.7058 33.6644C91.7103 33.5708 91.6774 33.4793 91.6144 33.41C91.5513 33.3407 91.4634 33.2993 91.3698 33.2948C91.2762 33.2903 91.1847 33.3232 91.1154 33.3863C91.0461 33.4493 91.0047 33.5372 91.0002 33.6308V33.6308Z" fill="#263238"/>
<path d="M92.8734 33.6476L92.8174 35.7756L91.6974 35.4284L92.8734 33.6476Z" fill="#874C4C"/>
<path d="M94.0465 38.4524C94.9509 38.332 96.8101 37.8 97.0985 37.0524C96.9834 37.4244 96.7566 37.7519 96.4489 37.9904C95.8889 38.4664 94.0465 39.004 94.0465 39.004V38.4524Z" fill="#874C4C"/>
<path d="M94.2761 27.2552C90.9777 26.4348 88.6901 29.2376 88.6901 32.0152V32.6676H91.1569C91.7118 32.6673 92.2478 32.4661 92.6658 32.1011C93.0838 31.7362 93.3554 31.2322 93.4305 30.6824V30.6824L93.5201 32.6676C93.9787 32.667 94.4202 32.4938 94.7568 32.1825C95.0935 31.8712 95.3008 31.4447 95.3373 30.9876L95.3653 30.6656C95.4089 31.2068 95.6546 31.7119 96.0536 32.0802C96.4526 32.4485 96.9755 32.6533 97.5185 32.6536H97.7369L98.0001 29.12L94.2761 27.2552Z" fill="#263238"/>
<path d="M108.956 54.0092C105.375 46.7964 101.858 42.168 100.024 41.4288L100.125 46.1048C100.125 46.1048 104.462 54.1408 107.232 57.7752C107.24 57.7752 109.71 55.5268 108.956 54.0092Z" fill="#9E6767"/>
<path d="M99.4226 40.6756C100.781 40.9556 101.593 40.9864 102.951 42.7756C104.432 44.7356 105.389 46.4604 106.392 47.95C106.392 47.95 104.992 51.408 102.895 51.3772L100.484 47.88C99.7113 46.8673 99.2087 45.6749 99.0231 44.4148C98.8375 43.1547 98.9749 41.8681 99.4226 40.6756V40.6756Z" fill="#EBEBEB"/>
<path d="M94.6905 52.36L94.5869 52.1444C94.5337 52.0324 94.4469 51.982 94.3937 52.0324L94.2061 52.2144L93.8673 51.4948C94.0159 51.2182 94.0874 50.9069 94.0745 50.5932C94.0688 50.0872 93.9532 49.5885 93.7357 49.1316C93.566 48.726 93.2807 48.3794 92.9153 48.1348C92.8422 48.0906 92.763 48.0576 92.6801 48.0368C92.578 48.0069 92.4698 48.0047 92.3665 48.0303C92.2632 48.0558 92.1685 48.1083 92.0921 48.1824C91.7505 48.5128 91.6553 49.2352 91.8513 50.0276C91.8918 50.1966 91.9452 50.3623 92.0109 50.5232C92.0333 50.582 92.0585 50.638 92.0921 50.7136C92.4869 51.5536 93.1113 51.9876 93.5677 51.7692L93.9121 52.4972L93.7301 52.6708C93.7033 52.7161 93.6891 52.7679 93.6891 52.8206C93.6891 52.8733 93.7033 52.925 93.7301 52.9704L93.8309 53.1832C93.8841 53.298 93.9709 53.3456 94.0241 53.2952L94.2061 53.1216L94.3937 53.5192C94.4469 53.634 94.5337 53.6816 94.5869 53.6312L94.6905 53.5332C94.7183 53.4887 94.7331 53.4373 94.7331 53.3848C94.7331 53.3323 94.7183 53.2809 94.6905 53.2364L94.5029 52.8388L94.6877 52.6596C94.7165 52.615 94.7321 52.5632 94.7326 52.5102C94.7331 52.4572 94.7185 52.4051 94.6905 52.36V52.36ZM93.6601 50.3552C93.6798 50.6028 93.6013 50.8481 93.4417 51.0384C93.1617 51.3184 92.6857 51.0384 92.3973 50.4476V50.4308C92.34 50.3103 92.2941 50.1847 92.2601 50.0556C92.2096 49.8732 92.1832 49.6849 92.1817 49.4956C92.1712 49.3725 92.185 49.2485 92.2225 49.1308C92.26 49.0131 92.3203 48.9039 92.4001 48.8096C92.4593 48.7484 92.5392 48.7114 92.6241 48.706C92.7061 48.6974 92.7889 48.713 92.8621 48.7508V48.7508L92.9237 48.7816C93.1581 48.938 93.3412 49.1601 93.4501 49.42C93.588 49.7155 93.6596 50.0375 93.6601 50.3636V50.3552Z" fill="#D43E8A"/>
<path d="M109.435 44.9652L106.465 51.2932C106.465 51.2932 104.622 52.4552 101.383 54.8996C101.167 54.1564 100.909 53.4262 100.61 52.7128C100.588 52.6691 100.568 52.6242 100.551 52.5784C100.467 52.3712 100.386 52.192 100.321 52.0548C100.299 52.01 100.279 51.9652 100.263 51.9288L100.162 51.7244L100.321 51.0776C101.693 49.6552 103.961 47.6448 104.538 47.1044C106.708 45.0632 108.329 44.8896 109.435 44.9652Z" fill="#FFC4C3"/>
<path d="M106.28 44.24H112.885C114.323 44.24 115.702 43.6689 116.718 42.6523C117.735 41.6357 118.306 40.2569 118.306 38.8192V37.5872C118.353 34.1348 115.691 31.2984 112.373 31.2508C109.057 31.2004 106.33 33.9584 106.28 37.4108V37.7664C106.327 40.936 106.28 44.24 106.28 44.24Z" fill="#263238"/>
<path d="M114.459 39.06C114.459 39.06 112.921 38.1864 111.233 37.0412C110.17 36.3152 109.25 35.3992 108.52 34.3392C108.52 34.3392 108.458 36.834 110.107 38.1864C111.757 39.5388 114.17 39.5864 114.232 39.5864C114.293 39.5864 114.459 39.06 114.459 39.06Z" fill="#CCCCCC"/>
<path d="M117.166 34.16L118.521 33.362C118.479 33.268 118.417 33.1839 118.339 33.1153C118.262 33.0467 118.171 32.9951 118.073 32.9637C117.975 32.9323 117.871 32.9218 117.768 32.9331C117.665 32.9443 117.566 32.9769 117.477 33.0288C117.293 33.1447 117.16 33.325 117.102 33.5342C117.045 33.7435 117.068 33.9666 117.166 34.16V34.16Z" fill="#263238"/>
<path d="M117.135 33.726L117.541 32.1636C117.443 32.1314 117.338 32.1199 117.235 32.1301C117.132 32.1402 117.032 32.1717 116.941 32.2225C116.851 32.2732 116.772 32.3423 116.709 32.4251C116.647 32.508 116.602 32.603 116.578 32.704C116.525 32.9132 116.552 33.135 116.656 33.3246C116.759 33.5143 116.931 33.6577 117.135 33.726V33.726Z" fill="#263238"/>
<path d="M106.168 98.5404V98.168C106.019 98.6048 105.328 100.489 104.303 101.43C103.483 102.18 102.36 103.048 102.063 103.883C101.766 104.717 103.625 105.045 104.393 104.908C105.286 104.751 106.439 104.244 107.069 103.471C107.509 102.928 107.792 102.287 108.108 101.858C108.425 101.43 109.15 100.954 109.321 100.458C109.413 100.178 109.304 99.5932 109.172 99.0892C109.049 98.63 108.92 98.1232 108.763 98.1652C108.763 98.2212 108.763 98.4452 108.763 98.4452C108.391 98.7366 107.931 98.8917 107.459 98.8848C107.089 98.9072 106.165 98.84 106.168 98.5404Z" fill="#263238"/>
<path d="M118.44 99.568C118.566 100.264 118.633 100.969 118.642 101.676C118.667 102.956 118.902 103.41 118.922 104.46C118.955 105.658 118.706 106.406 118.219 107.08C117.732 107.755 116.343 108.111 115.802 106.971C115.262 105.832 115.332 105.084 115.506 103.891C115.679 102.698 115.704 102.004 115.808 101.074C115.9 100.257 116.01 99.6352 116.01 99.6352L118.44 99.568Z" fill="#263238"/>
<path d="M119 84.98C118.701 81.9 117.9 80.514 117.838 79.814C117.838 79.814 119.073 66.29 117.785 60.6396H106.28C105.935 65.646 104.163 75.5832 104.6 79.996C104.857 82.558 106.162 96.488 106.162 96.488V97.5184C106.16 97.9897 106.065 98.4561 105.882 98.8904C105.566 99.652 105.014 100.769 104.292 101.43C104.059 101.64 103.805 101.864 103.55 102.091C102.911 102.833 103.413 103.144 104.39 103.012C105.423 102.875 106.291 102.074 106.745 101.444C107.425 100.503 108.621 99.064 108.747 98.5208H108.761V98.4564V96.6504C108.803 94.9312 110.508 85.7136 110.301 83.58C110.161 82.5215 109.93 81.477 109.612 80.458L111.44 69.6696C111.44 69.6696 112.56 77.3136 112.952 80.4748C113.411 84.098 115.943 98.3948 115.945 98.4284C115.989 98.8357 116.013 99.2451 116.015 99.6548C116.015 100.061 115.786 103.622 115.884 104.544C116.027 105.89 117.978 105.994 118.261 104.457C118.449 103.435 118.421 100.072 118.435 99.5736C118.435 99.2152 118.463 98.8148 118.485 98.3892C118.524 98.1232 119.336 88.5752 119 84.98Z" fill="#FFC4C3"/>
<path d="M114.615 45.3264L115.783 45.5392C115.133 48.7228 117.796 52.2844 117.796 52.2844L116.27 56.798C116.46 57.1396 117.656 58.9736 118.306 61.0148C119.644 65.2148 120.05 70.518 120.05 72.6516C117.034 76.2636 106.392 76.1124 103.561 71.9992C103.561 71.9992 104.63 63.3444 107.232 56.6552L106.705 53.5752C105.123 51.7076 105.798 50.148 106.28 49.2184C107.534 46.8076 108.48 45.8864 109.435 44.954L110.877 44.9064L114.615 45.3264Z" fill="#CCCCCC"/>
<path opacity="0.3" d="M114.615 45.3264L115.783 45.5392C115.133 48.7228 117.796 52.2844 117.796 52.2844L116.27 56.798C116.46 57.1396 117.656 58.9736 118.306 61.0148C119.644 65.2148 120.05 70.518 120.05 72.6516C117.034 76.2636 106.392 76.1124 103.561 71.9992C103.561 71.9992 104.63 63.3444 107.232 56.6552L106.705 53.5752C105.123 51.7076 105.798 50.148 106.28 49.2184C107.534 46.8076 108.48 45.8864 109.435 44.954L110.877 44.9064L114.615 45.3264Z" fill="black"/>
<path opacity="0.1" d="M115.682 53.242C115.962 54.3984 115.727 56.1456 114.789 56.5432C113.851 56.9408 115.069 57.5652 115.993 59.3012C116.917 61.0372 119.96 69.1964 117.062 72.4052C114.164 75.614 106.422 74.144 106.392 74.1384C110.698 75.9976 117.698 75.4712 120.05 72.6516C120.05 70.518 119.644 65.2204 118.306 61.0148C117.656 58.9736 116.46 57.1396 116.27 56.798L117.796 52.2844C117.047 51.2292 116.461 50.0672 116.057 48.8376L115.237 48.9272C115.237 48.9272 115.413 52.08 115.682 53.242Z" fill="black"/>
<path d="M128.99 40.1744C129.077 41.1936 129.447 49.2324 129.41 49.924C129.338 51.4388 129.539 53.1496 127.106 52.724C125.012 52.3656 118.241 50.8676 118.241 50.8676L117.796 52.2676C117.796 52.2676 115.665 51.6656 115.237 48.9076C115.032 47.749 115.225 46.5552 115.783 45.5196C116.906 45.4176 118.037 45.5259 119.12 45.8388C119.986 46.0572 121.106 46.6228 123.01 47.222C125.031 47.8604 125.922 48.1712 125.922 48.1712L126.252 40.4348" fill="#FFC4C3"/>
<path d="M129.044 41.0396C128.994 40.6214 129.093 40.1992 129.324 39.8468C129.591 39.5493 129.752 39.1708 129.78 38.7716C129.9 38.0744 129.976 37.4976 129.976 37.4976C129.976 37.4976 130.052 36.848 129.786 36.5988C129.715 36.5173 129.615 36.4656 129.508 36.4542C129.4 36.4428 129.293 36.4724 129.206 36.5372C129.258 36.4175 129.268 36.2839 129.234 36.1579C129.201 36.0319 129.126 35.9209 129.021 35.8428C128.91 35.7725 128.777 35.7437 128.646 35.7617C128.516 35.7796 128.396 35.843 128.307 35.9408C128.307 35.9408 128.5 35.3416 127.999 35.1204C127.875 35.0525 127.73 35.0358 127.594 35.074C127.457 35.1123 127.342 35.2023 127.271 35.3248C127.309 35.1604 127.281 34.9876 127.193 34.8436C127.105 34.6996 126.965 34.5959 126.801 34.5548C126.47 34.4428 126.112 34.5968 125.756 35.658C125.483 35.7336 125.238 35.8897 125.054 36.106C124.828 36.7639 124.676 37.4447 124.6 38.136C124.555 38.5028 124.846 39.13 125.311 39.5976C125.734 40.0204 126.263 40.4852 126.21 41.7536L129.044 41.0396Z" fill="#FFC4C3"/>
<path d="M129.315 38.5476L129.271 38.5924C129.217 38.6479 129.151 38.6901 129.078 38.7158C129.005 38.7416 128.927 38.7501 128.851 38.7408C128.799 38.7118 128.755 38.6716 128.721 38.6231C128.687 38.5747 128.664 38.5192 128.655 38.4608C128.622 38.2756 128.622 38.0861 128.655 37.9008C128.655 37.9008 128.655 37.9008 128.655 37.8784C128.655 37.856 128.618 37.8784 128.607 37.8784C128.534 37.9596 128.487 38.0576 128.419 38.1584C128.377 38.2174 128.321 38.265 128.256 38.2967C128.191 38.3285 128.119 38.3435 128.047 38.3404C127.747 38.3404 127.672 37.9736 127.68 37.7328C127.68 37.6516 127.68 37.5732 127.68 37.492C127.68 37.492 127.68 37.4668 127.663 37.4668C127.623 37.4996 127.589 37.5406 127.565 37.5872C127.534 37.6345 127.498 37.6778 127.456 37.716C127.405 37.7687 127.34 37.8056 127.269 37.8224C127.112 37.8476 127.042 37.7048 126.989 37.5816C126.899 37.3814 126.865 37.1612 126.888 36.9432V36.9236H126.947C127.523 36.9964 127.719 36.428 127.535 36.2824C127.35 36.1368 126.695 35.4564 126.543 35.4788C126.275 35.5105 126.009 35.562 125.748 35.6328L126.56 35.56C126.56 35.56 127.501 36.4 127.459 36.5092C127.43 36.6034 127.371 36.6852 127.29 36.7416C127.209 36.7979 127.112 36.8255 127.014 36.82C126.729 36.8024 126.447 36.7507 126.174 36.666C126.151 36.8928 125.656 37.2484 125.656 37.2484C126.109 37.435 126.529 37.692 126.902 38.01C127.361 38.4283 127.74 38.9263 128.022 39.48C127.897 38.9393 127.633 38.4404 127.257 38.0324C127.343 38.0241 127.424 37.9921 127.493 37.94C127.493 38.2732 127.551 38.5896 127.971 38.5896C128.066 38.5982 128.161 38.5814 128.246 38.541C128.332 38.5007 128.405 38.4382 128.459 38.36C128.452 38.4511 128.474 38.5419 128.52 38.6207C128.565 38.6996 128.634 38.7629 128.716 38.8024C128.808 38.8554 128.916 38.8721 129.02 38.8493C129.124 38.8265 129.215 38.7658 129.276 38.6792C129.299 38.6443 129.318 38.6078 129.335 38.57C129.336 38.5626 129.336 38.555 129.335 38.5476C129.335 38.5476 129.327 38.5476 129.315 38.5476ZM126.202 36.8368C126.202 36.8368 126.336 36.8704 126.781 36.9292C126.734 37.0188 126.711 37.1196 126.672 37.2092C126.653 37.2636 126.623 37.3139 126.585 37.3576L126.549 37.3856C126.376 37.2561 126.195 37.1392 126.006 37.0356C126.09 36.9914 126.159 36.9219 126.202 36.8368V36.8368Z" fill="#FFA8A7"/>
<path d="M108.52 34.3392C107.923 34.8992 107.176 36.0808 107.235 39.5612C107.285 42.5124 108.201 43.246 108.66 43.4588C109.119 43.6716 110.012 43.5484 110.877 43.4028V44.9176C110.877 44.9176 109.365 46.4352 109.438 47.2472C109.511 48.0592 111.457 48.4372 112.58 47.6504C113.369 47.04 114.057 46.3074 114.615 45.4804L114.652 41.2496C114.652 41.2496 115.159 41.7676 116.027 40.9864C116.743 40.3424 116.987 39.2504 116.435 38.6596C116.293 38.5203 116.119 38.4179 115.928 38.3614C115.738 38.3048 115.536 38.296 115.341 38.3355C115.146 38.375 114.963 38.4617 114.81 38.588C114.656 38.7143 114.535 38.8764 114.459 39.06C113.203 38.9589 111.983 38.5924 110.88 37.9848C109.136 37.0076 108.713 35.4676 108.52 34.3392Z" fill="#FFC4C3"/>
<path d="M108.565 38.6092C108.568 38.6567 108.562 38.7043 108.547 38.7495C108.532 38.7946 108.508 38.8363 108.477 38.8722C108.446 38.9082 108.408 38.9375 108.365 38.9587C108.322 38.9799 108.276 38.9924 108.229 38.9956C108.135 38.9935 108.046 38.9561 107.979 38.891C107.912 38.8258 107.872 38.7377 107.868 38.6444C107.863 38.551 107.894 38.4594 107.954 38.388C108.014 38.3165 108.099 38.2705 108.192 38.2592C108.24 38.2577 108.287 38.2656 108.331 38.2824C108.376 38.2992 108.416 38.3245 108.451 38.357C108.485 38.3895 108.513 38.4285 108.533 38.4718C108.552 38.5151 108.563 38.5618 108.565 38.6092Z" fill="#263238"/>
<path d="M111.589 38.6932C111.589 38.7628 111.569 38.831 111.531 38.8893C111.493 38.9477 111.439 38.9936 111.375 39.0214C111.311 39.0492 111.241 39.0577 111.172 39.0458C111.104 39.034 111.04 39.0022 110.989 38.9545C110.939 38.9069 110.903 38.8454 110.887 38.7776C110.871 38.7099 110.875 38.639 110.899 38.5736C110.923 38.5082 110.965 38.4513 111.021 38.4098C111.077 38.3684 111.144 38.3442 111.213 38.3404C111.261 38.3385 111.309 38.3462 111.354 38.363C111.399 38.3798 111.44 38.4054 111.475 38.4382C111.51 38.471 111.538 38.5105 111.557 38.5543C111.577 38.5981 111.588 38.6453 111.589 38.6932V38.6932Z" fill="#263238"/>
<path d="M110.645 41.44L109.805 41.72C109.818 41.7767 109.843 41.83 109.877 41.8768C109.912 41.9236 109.956 41.9627 110.006 41.9918C110.057 42.021 110.113 42.0395 110.17 42.0462C110.228 42.0529 110.287 42.0476 110.342 42.0308C110.46 41.9911 110.557 41.9071 110.614 41.7968C110.67 41.6865 110.681 41.5585 110.645 41.44V41.44Z" fill="#FFA8A7"/>
<path d="M107.604 37.5928L108.329 37.0776C108.301 37.0272 108.262 36.9833 108.215 36.9489C108.169 36.9145 108.116 36.8903 108.059 36.8778C108.003 36.8654 107.944 36.8651 107.887 36.8768C107.831 36.8886 107.777 36.9121 107.73 36.946C107.633 37.0196 107.567 37.1262 107.544 37.2454C107.521 37.3647 107.542 37.4883 107.604 37.5928V37.5928Z" fill="#263238"/>
<path d="M114.453 38.71V39.956C114.373 39.9594 114.294 39.9466 114.219 39.9182C114.145 39.8898 114.077 39.8465 114.02 39.7909C113.962 39.7353 113.917 39.6686 113.887 39.5949C113.856 39.5213 113.841 39.4421 113.842 39.3624C113.84 39.1958 113.902 39.0348 114.016 38.9131C114.13 38.7915 114.287 38.7187 114.453 38.71V38.71Z" fill="#263238"/>
<path d="M109.685 38.3404L109.693 40.7568L108.567 40.3872L109.685 38.3404Z" fill="#FFA8A7"/>
<path d="M114.979 38.4748H112.591C112.537 38.2182 112.396 37.9881 112.192 37.8234C111.988 37.6586 111.733 37.5693 111.471 37.5704H111.294C111.069 37.5713 110.849 37.6388 110.662 37.7643C110.474 37.8898 110.328 38.0678 110.242 38.276C110.064 38.1013 109.827 38.0012 109.578 37.996C109.368 37.9784 109.159 38.0404 108.993 38.1696C108.895 37.9916 108.752 37.843 108.578 37.7391C108.403 37.6352 108.205 37.5799 108.002 37.5788H107.825C107.533 37.5933 107.258 37.7195 107.056 37.9314C106.855 38.1433 106.742 38.4245 106.742 38.717C106.742 39.0095 106.855 39.2907 107.056 39.5026C107.258 39.7145 107.533 39.8407 107.825 39.8552H108.002C108.303 39.8552 108.592 39.7354 108.805 39.5222C109.019 39.309 109.138 39.0199 109.138 38.7184C109.137 38.5952 109.116 38.4732 109.074 38.3572C109.139 38.2944 109.217 38.2465 109.303 38.217C109.389 38.1875 109.48 38.1771 109.57 38.1864C109.687 38.1876 109.802 38.2157 109.906 38.2687C110.011 38.3216 110.102 38.3979 110.172 38.4916V38.4916C110.156 38.568 110.148 38.646 110.149 38.724C110.149 39.0255 110.269 39.3146 110.482 39.5278C110.695 39.741 110.985 39.8608 111.286 39.8608H111.462C111.764 39.8608 112.053 39.741 112.266 39.5278C112.479 39.3146 112.599 39.0255 112.599 38.724C112.599 38.71 112.599 38.696 112.599 38.682H114.73C114.807 38.6056 114.89 38.5362 114.979 38.4748V38.4748ZM108.01 39.6536H107.834C107.705 39.6606 107.577 39.6413 107.456 39.597C107.335 39.5527 107.225 39.4842 107.131 39.3958C107.038 39.3073 106.964 39.2008 106.913 39.0826C106.862 38.9645 106.836 38.8372 106.836 38.7086C106.836 38.58 106.862 38.4527 106.913 38.3346C106.964 38.2164 107.038 38.1099 107.131 38.0214C107.225 37.933 107.335 37.8645 107.456 37.8202C107.577 37.7759 107.705 37.7566 107.834 37.7636H108.01C108.138 37.7566 108.267 37.7759 108.388 37.8202C108.508 37.8645 108.619 37.933 108.712 38.0214C108.806 38.1099 108.88 38.2164 108.931 38.3346C108.982 38.4527 109.008 38.58 109.008 38.7086C109.008 38.8372 108.982 38.9645 108.931 39.0826C108.88 39.2008 108.806 39.3073 108.712 39.3958C108.619 39.4842 108.508 39.5527 108.388 39.597C108.267 39.6413 108.138 39.6606 108.01 39.6536ZM111.479 39.6536H111.303C111.174 39.6606 111.046 39.6413 110.925 39.597C110.804 39.5527 110.694 39.4842 110.601 39.3958C110.507 39.3073 110.433 39.2008 110.382 39.0826C110.331 38.9645 110.305 38.8372 110.305 38.7086C110.305 38.58 110.331 38.4527 110.382 38.3346C110.433 38.2164 110.507 38.1099 110.601 38.0214C110.694 37.933 110.804 37.8645 110.925 37.8202C111.046 37.7759 111.174 37.7566 111.303 37.7636H111.479C111.721 37.7768 111.948 37.8821 112.115 38.0578C112.281 38.2336 112.374 38.4665 112.374 38.7086C112.374 38.9507 112.281 39.1836 112.115 39.3594C111.948 39.5351 111.721 39.6404 111.479 39.6536Z" fill="#455A64"/>
<path d="M110.88 43.4C111.793 43.2796 113.68 42.728 113.96 41.958C113.842 42.3445 113.611 42.6868 113.297 42.9408C112.737 43.4364 110.88 43.9936 110.88 43.9936V43.4Z" fill="#FFA8A7"/>
<path d="M45.3322 28.686H46.5502C47.8869 28.686 49.1689 29.217 50.114 30.1622C51.0592 31.1074 51.5902 32.3893 51.5902 33.726V39.8076C51.5902 40.6906 51.2395 41.5374 50.6151 42.1617C49.9908 42.7861 49.144 43.1368 48.261 43.1368H40.2866V33.7316C40.2859 33.0688 40.4159 32.4124 40.6692 31.7999C40.9225 31.1874 41.2941 30.6309 41.7628 30.1622C42.2315 29.6935 42.788 29.3219 43.4005 29.0686C44.013 28.8153 44.6694 28.6853 45.3322 28.686V28.686Z" fill="#CCCCCC"/>
<path opacity="0.15" d="M45.3322 28.686H46.5502C47.8869 28.686 49.1689 29.217 50.114 30.1622C51.0592 31.1074 51.5902 32.3893 51.5902 33.726V39.8076C51.5902 40.6906 51.2395 41.5374 50.6151 42.1617C49.9908 42.7861 49.144 43.1368 48.261 43.1368H40.2866V33.7316C40.2859 33.0688 40.4159 32.4124 40.6692 31.7999C40.9225 31.1874 41.2941 30.6309 41.7628 30.1622C42.2315 29.6935 42.788 29.3219 43.4005 29.0686C44.013 28.8153 44.6694 28.6853 45.3322 28.686V28.686Z" fill="black"/>
<path d="M44.9542 101.553C44.6994 101.326 44.4446 101.105 44.215 100.895C43.4982 100.24 42.9522 99.1312 42.6358 98.3752C42.4538 97.9444 42.3586 97.482 42.3558 97.0144V95.5388H39.7686V97.9384V98C39.8946 98.5376 41.0818 99.96 41.7566 100.901C42.2074 101.525 43.067 102.32 44.0946 102.458C45.0801 102.598 45.587 102.29 44.9542 101.553Z" fill="#B16668"/>
<path d="M39.1189 99.0304C38.9873 99.6296 39.1805 101.27 39.1805 101.27C39.1805 101.27 39.4605 101.83 40.3845 102.18L40.7401 99.8928L39.1189 99.0304Z" fill="#263238"/>
<path d="M40.3846 102.175L42.3978 101.458L42.843 99.6436L40.589 100.853L40.3846 102.175Z" fill="black"/>
<path d="M42.3669 96.8632V96.4348C42.6469 96.5636 43.3077 98.77 44.1673 100.274C44.9513 101.648 46.4549 102.385 46.9533 102.978C47.6197 103.774 46.3933 104.849 44.3661 104.468C43.3609 104.28 41.8461 103.678 41.4065 103.015C40.9669 102.351 40.8101 101.114 40.4629 100.626C40.1157 100.139 39.3037 99.5904 39.1189 99.0304C39.0181 98.7224 39.1553 98.0532 39.3121 97.4904C39.4577 96.9724 39.5921 96.3452 39.7797 96.3984V96.7904C39.9197 97.0704 40.1857 97.3504 41.2049 97.3812C41.6893 97.3952 42.1541 97.3084 42.3669 96.8632Z" fill="#CCCCCC"/>
<path opacity="0.6" d="M42.3669 96.8632V96.4348C42.6469 96.5636 43.3077 98.77 44.1673 100.274C44.9513 101.648 46.4549 102.385 46.9533 102.978C47.6197 103.774 46.3933 104.849 44.3661 104.468C43.3609 104.28 41.8461 103.678 41.4065 103.015C40.9669 102.351 40.8101 101.114 40.4629 100.626C40.1157 100.139 39.3037 99.5904 39.1189 99.0304C39.0181 98.7224 39.1553 98.0532 39.3121 97.4904C39.4577 96.9724 39.5921 96.3452 39.7797 96.3984V96.7904C39.9197 97.0704 40.1857 97.3504 41.2049 97.3812C41.6893 97.3952 42.1541 97.3084 42.3669 96.8632Z" fill="black"/>
<path d="M54.7794 100.167C54.5274 99.9432 54.2726 99.722 54.0402 99.5092C53.3234 98.854 52.7746 97.7424 52.461 96.9892C52.2785 96.4835 52.1839 95.9504 52.181 95.4128V94.1836L49.5966 94.1472V96.5524V96.6168H49.6106C49.7338 97.1544 50.9238 98.5768 51.5986 99.5204C52.0522 100.148 52.9146 100.946 53.9422 101.083C54.9166 101.214 55.415 100.906 54.7794 100.167Z" fill="#B16668"/>
<path d="M48.9356 97.5744C48.804 98.1764 48.9972 99.8144 48.9972 99.8144C48.9972 99.8144 49.2772 100.374 50.1984 100.727L50.5568 98.4396L48.9356 97.5744Z" fill="#263238"/>
<path d="M50.1985 100.722L52.2145 100.005L52.6597 98.1876L50.4057 99.4L50.1985 100.722Z" fill="black"/>
<path d="M52.181 95.41V94.9816C52.461 95.1104 53.1218 97.3168 53.9814 98.8204C54.7654 100.192 56.2718 100.932 56.7814 101.525C57.4478 102.32 56.2214 103.396 54.197 103.015C53.1918 102.824 51.677 102.225 51.2346 101.559C50.7922 100.892 50.6382 99.6604 50.291 99.1732C49.9438 98.686 49.1318 98.1344 48.9498 97.5744C48.849 97.2664 48.9862 96.6 49.143 96.0344C49.2886 95.5192 49.423 94.8948 49.6106 94.9452V95.3428C49.7534 95.6228 50.0166 95.9028 51.033 95.9252C51.5034 95.9392 51.971 95.8552 52.181 95.41Z" fill="#CCCCCC"/>
<path opacity="0.6" d="M52.181 95.41V94.9816C52.461 95.1104 53.1218 97.3168 53.9814 98.8204C54.7654 100.192 56.2718 100.932 56.7814 101.525C57.4478 102.32 56.2214 103.396 54.197 103.015C53.1918 102.824 51.677 102.225 51.2346 101.559C50.7922 100.892 50.6382 99.6604 50.291 99.1732C49.9438 98.686 49.1318 98.1344 48.9498 97.5744C48.849 97.2664 48.9862 96.6 49.143 96.0344C49.2886 95.5192 49.423 94.8948 49.6106 94.9452V95.3428C49.7534 95.6228 50.0166 95.9028 51.033 95.9252C51.5034 95.9392 51.971 95.8552 52.181 95.41Z" fill="black"/>
<path d="M39.6537 57.5204C37.5789 62.0536 39.7293 78.022 39.7293 78.022C39.6649 78.7584 38.6849 80.402 38.7521 83.342C38.8389 87.1836 39.6257 95.6452 39.6257 95.6452C39.6257 95.6452 41.0789 96.796 42.5517 95.7992C42.5517 95.7992 44.3493 82.516 44.8281 78.7192C45.2481 75.4012 46.0517 68.1016 46.0517 68.1016L48.3365 78.7024C48.3365 78.7024 47.6197 81.1692 47.6029 82.5944C47.5665 85.5288 49.4061 94.2816 49.4061 94.2816C49.4061 94.2816 50.6017 95.214 52.2845 94.3376C52.2845 94.3376 53.0069 80.8976 53.2085 78.1956C53.5473 73.668 52.3461 59.5448 51.5285 56.868L39.6537 57.5204Z" fill="#CCCCCC"/>
<g opacity="0.3">
<path opacity="0.3" d="M39.6537 57.5204C37.5789 62.0536 39.7293 78.022 39.7293 78.022C39.6649 78.7584 38.6849 80.402 38.7521 83.342C38.8389 87.1836 39.6257 95.6452 39.6257 95.6452C39.6257 95.6452 41.0789 96.796 42.5517 95.7992C42.5517 95.7992 44.3493 82.516 44.8281 78.7192C45.2481 75.4012 46.0517 68.1016 46.0517 68.1016L48.3365 78.7024C48.3365 78.7024 47.6197 81.1692 47.6029 82.5944C47.5665 85.5288 49.4061 94.2816 49.4061 94.2816C49.4061 94.2816 50.6017 95.214 52.2845 94.3376C52.2845 94.3376 53.0069 80.8976 53.2085 78.1956C53.5473 73.668 52.3461 59.5448 51.5285 56.868L39.6537 57.5204Z" fill="black"/>
</g>
<g opacity="0.15">
<path opacity="0.15" d="M46.0518 68.0932L46.7266 63.8932C46.7266 63.8932 49.577 63.3024 50.8678 62.0872C50.8678 62.0872 49.5126 63.7672 47.5078 64.3272L46.749 67.5696L47.9502 76.8796L46.0518 68.0932Z" fill="black"/>
</g>
<path d="M53.4802 52.1444C54.4518 53.0992 56.619 53.6396 62.2106 54.6084C63.2298 54.7848 64.8286 55.0956 65.8058 54.6896C66.783 54.2836 67.4858 53.9224 68.0458 53.0432C68.1824 52.8476 68.2838 52.6297 68.3454 52.3992C68.405 52.1651 68.3709 51.9169 68.2502 51.7076C68.1149 51.5185 67.9162 51.3843 67.6902 51.3296C67.2954 51.2176 66.825 51.3856 66.4526 51.52C66.2622 51.5872 66.0746 51.6908 65.8926 51.744C65.6236 51.8213 65.348 51.8737 65.0694 51.9008C65.033 51.9008 64.9798 51.9008 64.9826 51.856C64.9834 51.8414 64.9893 51.8275 64.9994 51.8168C65.0638 51.7356 65.145 51.6684 65.215 51.5928C65.3404 51.4378 65.4441 51.2663 65.523 51.0832C65.5858 50.9586 65.6338 50.827 65.6658 50.6912C65.6895 50.6107 65.6905 50.5253 65.6687 50.4443C65.647 50.3633 65.6034 50.2898 65.5426 50.232C65.2794 50.0248 65.327 50.0696 64.8566 50.4728C64.3862 50.876 64.2966 50.6828 63.6666 51.3128C63.1234 51.8728 63.2438 52.0856 62.5886 52.3544C61.8774 52.6344 61.9698 52.6512 58.8254 51.6936C57.6782 51.3845 56.5835 50.9061 55.5774 50.274C54.6982 48.874 52.4526 45.5448 51.5314 43.9348C50.5598 42.2324 48.583 42.1792 48.583 42.1792C48.583 42.1792 48.5494 43.5792 49.5994 46.6956C50.2798 48.72 53.007 51.6712 53.4802 52.1444Z" fill="#B16668"/>
<path d="M48.4038 42.0868C49.2565 42.0711 50.0897 42.3423 50.7698 42.8568C51.8898 43.7136 52.2538 44.3604 53.1946 45.7492C53.9142 46.8104 56.0758 49.91 56.0758 49.91C56.0758 49.91 56.9998 50.47 59.8782 51.4864C61.2138 51.9624 61.9698 52.192 61.9698 52.192C62.0763 52.6508 62.0557 53.13 61.9102 53.578C61.7646 54.026 61.4997 54.4258 61.1438 54.7344C61.1438 54.7344 58.3942 54.2864 56.9018 53.8944C53.8806 53.0768 53.7602 52.7576 53.2618 52.2816C52.7634 51.8056 49.4118 48.216 49.4118 48.216L48.4038 42.0868Z" fill="#818181"/>
<path d="M43.5233 42.112L41.6781 42.2044L39.8609 44.2652C39.7181 45.4412 39.3009 46.956 39.6761 48.076L40.9053 52.7744C40.3925 54.3344 39.9745 55.9239 39.6537 57.5344C44.3073 60.1328 50.1173 58.7664 51.5173 56.8736C51.6009 54.8345 51.557 52.7921 51.3857 50.7584C52.5449 48.9608 52.6457 47.208 52.0353 45.9452C51.0413 43.8872 49.5993 42.4424 48.8741 42.2184C48.2546 42.0616 47.6176 41.9844 46.9785 41.9888L43.5233 42.112Z" fill="#CCCCCC"/>
<path d="M41.6782 42.2044C40.3202 42.4844 39.5082 42.5152 38.1502 44.3044C36.669 46.2644 32.8302 53.1104 31.8278 54.6028C31.8278 54.6028 31.573 58.4024 33.6618 58.3688L40.5386 48.9132C40.5386 48.9132 42.437 45.6736 41.6782 42.2044Z" fill="#818181"/>
<path d="M42.3166 41.258H45.6766V45.2032C45.6766 46.0943 45.3226 46.949 44.6925 47.5791C44.0623 48.2092 43.2077 48.5632 42.3166 48.5632V41.258Z" fill="#CCCCCC"/>
<path opacity="0.3" d="M42.3166 41.258H45.6766V45.2032C45.6766 46.0943 45.3226 46.949 44.6925 47.5791C44.0623 48.2092 43.2077 48.5632 42.3166 48.5632V41.258Z" fill="black"/>
<path d="M49.745 31.5644C50.5066 32.1076 50.7642 32.7292 50.683 36.1984C50.6158 39.1384 49.6638 39.8664 49.185 40.0764C48.7062 40.2864 47.785 40.1576 46.8862 40.0092V42.0896C46.8862 42.0896 47.2698 42.3388 47.4798 43.1228C47.5386 43.3412 46.8162 43.6828 45.0326 43.4364C44.6511 43.4032 44.2836 43.2765 43.9628 43.0675C43.6419 42.8585 43.3775 42.5736 43.193 42.238V35.6608C43.193 35.6608 43.193 32.9952 45.111 31.948C47.029 30.9008 48.8126 31.1528 49.745 31.5644Z" fill="#B16668"/>
<path d="M43.193 35.6608C43.193 35.6608 44.9402 32.55 47.4798 32.1692C50.0194 31.7884 50.585 33.0652 50.585 33.0652C50.585 33.0652 50.2602 30.1868 47.4798 30.2652C43.6466 30.3632 43.193 33.2948 43.193 35.6608Z" fill="#CCCCCC"/>
<path opacity="0.4" d="M43.193 35.6608C43.193 35.6608 44.9402 32.55 47.4798 32.1692C50.0194 31.7884 50.585 33.0652 50.585 33.0652C50.585 33.0652 50.2602 30.1868 47.4798 30.2652C43.6466 30.3632 43.193 33.2948 43.193 35.6608Z" fill="black"/>
<path d="M47.4014 35.4592C47.4063 35.5572 47.3719 35.6532 47.306 35.7259C47.2401 35.7986 47.1481 35.8422 47.05 35.847C46.952 35.8518 46.8561 35.8175 46.7834 35.7516C46.7106 35.6857 46.6671 35.5936 46.6622 35.4956C46.6584 35.4462 46.6645 35.3966 46.6801 35.3496C46.6957 35.3026 46.7206 35.2592 46.7532 35.2219C46.7857 35.1846 46.8254 35.1542 46.8699 35.1325C46.9144 35.1107 46.9628 35.098 47.0122 35.0952C47.112 35.0922 47.209 35.1288 47.2819 35.197C47.3548 35.2652 47.3978 35.3594 47.4014 35.4592V35.4592Z" fill="#263238"/>
<path d="M47.4993 37.954L48.3589 38.234C48.3435 38.2918 48.3166 38.3458 48.2798 38.3929C48.243 38.44 48.1971 38.4793 48.1449 38.5083C48.0926 38.5373 48.0351 38.5555 47.9756 38.5617C47.9162 38.568 47.8561 38.5623 47.7989 38.5448C47.682 38.5045 47.5854 38.4204 47.5295 38.3101C47.4736 38.1998 47.4628 38.0721 47.4993 37.954V37.954Z" fill="#9A4A4D"/>
<path d="M50.3583 34.5156L49.6107 33.9976C49.6419 33.947 49.6831 33.9034 49.7317 33.8693C49.7804 33.8352 49.8355 33.8114 49.8937 33.7993C49.9519 33.7873 50.0119 33.7872 50.0701 33.7992C50.1284 33.8111 50.1835 33.8348 50.2323 33.8688C50.3321 33.94 50.4008 34.0467 50.4242 34.1671C50.4477 34.2874 50.4241 34.4122 50.3583 34.5156V34.5156Z" fill="#263238"/>
<path d="M46.1385 34.3252L46.8861 33.8072C46.8549 33.7566 46.8137 33.713 46.765 33.6789C46.7164 33.6448 46.6613 33.621 46.6031 33.6089C46.5449 33.5969 46.4848 33.5968 46.4266 33.6088C46.3684 33.6207 46.3133 33.6444 46.2645 33.6784C46.1647 33.7496 46.096 33.8563 46.0726 33.9767C46.0491 34.097 46.0727 34.2218 46.1385 34.3252V34.3252Z" fill="#263238"/>
<path d="M50.1846 35.3836C50.1851 35.4561 50.1642 35.5271 50.1247 35.5878C50.0851 35.6486 50.0285 35.6963 49.962 35.7251C49.8955 35.7539 49.822 35.7626 49.7506 35.7499C49.6792 35.7373 49.6131 35.704 49.5606 35.6541C49.508 35.6042 49.4713 35.5399 49.4549 35.4693C49.4386 35.3986 49.4434 35.3248 49.4687 35.2569C49.4941 35.1889 49.5388 35.13 49.5974 35.0873C49.656 35.0446 49.7258 35.0201 49.7982 35.0168C49.898 35.0145 49.9946 35.0518 50.067 35.1205C50.1394 35.1893 50.1817 35.2838 50.1846 35.3836V35.3836Z" fill="#263238"/>
<path d="M48.4401 35.14L48.4989 37.366L49.6721 37.002L48.4401 35.14Z" fill="#9A4A4D"/>
<path d="M46.886 40.0092C45.9396 39.8832 43.9936 39.326 43.6912 38.556C43.8124 38.9453 44.0511 39.2876 44.3744 39.536C44.954 40.0344 46.8944 40.5972 46.8944 40.5972L46.886 40.0092Z" fill="#9A4A4D"/>
<path d="M48.0846 40.3956L46.889 40.0092C46.889 40.0602 46.8789 40.1106 46.8593 40.1577C46.8397 40.2048 46.811 40.2475 46.7749 40.2834C46.7387 40.3193 46.6958 40.3477 46.6485 40.367C46.6013 40.3862 46.5508 40.3959 46.4998 40.3956H44.6266C44.2464 40.3956 43.8818 40.2445 43.6129 39.9757C43.3441 39.7068 43.193 39.3422 43.193 38.962L42.0002 40.3956H40.2866V42.658C40.2866 43.0293 40.4341 43.3854 40.6967 43.6479C40.9592 43.9105 41.3153 44.058 41.6866 44.058H46.8498C47.2977 44.058 47.7411 43.9698 48.1549 43.7984C48.5687 43.627 48.9446 43.3758 49.2613 43.0591C49.578 42.7424 49.8292 42.3665 50.0006 41.9527C50.172 41.5389 50.2602 41.0954 50.2602 40.6476V40.3956H48.0846Z" fill="#CCCCCC"/>
<path opacity="0.15" d="M48.0846 40.3956L46.889 40.0092C46.889 40.0602 46.8789 40.1106 46.8593 40.1577C46.8397 40.2048 46.811 40.2475 46.7749 40.2834C46.7387 40.3193 46.6958 40.3477 46.6485 40.367C46.6013 40.3862 46.5508 40.3959 46.4998 40.3956H44.6266C44.2464 40.3956 43.8818 40.2445 43.6129 39.9757C43.3441 39.7068 43.193 39.3422 43.193 38.962L42.0002 40.3956H40.2866V42.658C40.2866 43.0293 40.4341 43.3854 40.6967 43.6479C40.9592 43.9105 41.3153 44.058 41.6866 44.058H46.8498C47.2977 44.058 47.7411 43.9698 48.1549 43.7984C48.5687 43.627 48.9446 43.3758 49.2613 43.0591C49.578 42.7424 49.8292 42.3665 50.0006 41.9527C50.172 41.5389 50.2602 41.0954 50.2602 40.6476V40.3956H48.0846Z" fill="black"/>
<path d="M22.792 50.8732V39.0684C22.7752 35.616 25.48 32.8048 28.784 32.788C32.0992 32.7684 34.8012 35.5516 34.818 39.004V50.8424L22.792 50.8732Z" fill="#333333"/>
<path d="M32.049 46.592C33.3874 46.7068 34.7117 46.788 36.4338 49.3444C36.9714 50.1424 39.3514 53.1328 40.3986 54.4348C40.099 55.5548 39.8582 56.5068 39.6538 57.5148L39.2002 58.9568C36.4142 55.6136 34.4878 53.326 34.4878 53.326L32.049 46.592Z" fill="#FFBDA7"/>
<path d="M23.9345 35.6748L22.5793 34.8768C22.6221 34.7828 22.6841 34.6987 22.7613 34.6301C22.8385 34.5615 22.9292 34.5099 23.0276 34.4785C23.126 34.4471 23.2299 34.4367 23.3326 34.4479C23.4353 34.4591 23.5344 34.4917 23.6237 34.5436C23.8072 34.6595 23.9407 34.8398 23.9982 35.049C24.0557 35.2583 24.033 35.4814 23.9345 35.6748V35.6748Z" fill="#37474F"/>
<path d="M23.9653 35.2576L23.5593 33.6924C23.6578 33.6602 23.7619 33.6488 23.865 33.659C23.9682 33.6691 24.068 33.7006 24.1584 33.7514C24.2487 33.8022 24.3274 33.8713 24.3896 33.9541C24.4518 34.037 24.4961 34.1319 24.5197 34.2328C24.5736 34.442 24.5463 34.6639 24.4435 34.8539C24.3407 35.044 24.1699 35.1881 23.9653 35.2576V35.2576Z" fill="#37474F"/>
<path d="M33.992 100.122V99.75C34.1376 100.187 34.832 102.068 35.854 103.012C36.6772 103.762 37.7972 104.628 38.094 105.465C38.3908 106.302 36.5344 106.627 35.7672 106.49C34.874 106.333 33.7204 105.826 33.0904 105.053C32.648 104.51 32.368 103.866 32.0516 103.44C31.7352 103.015 31.01 102.536 30.8392 102.04C30.744 101.76 30.856 101.172 30.9876 100.671C31.1192 100.17 31.2396 99.7024 31.3964 99.7472V100.027C31.7679 100.32 32.2285 100.476 32.7012 100.47C33.0708 100.489 33.9948 100.414 33.992 100.122Z" fill="#263238"/>
<path d="M22.0025 101.139C21.8792 101.835 21.8127 102.54 21.8037 103.247C21.7785 104.527 21.5433 104.98 21.5237 106.03C21.4873 107.229 21.6945 107.68 22.1817 108.352C22.6689 109.024 23.9457 109.64 24.4861 108.5C25.0265 107.36 24.9565 106.613 24.7857 105.437C24.6065 104.219 24.5841 103.547 24.4805 102.62C24.3881 101.8 24.2789 101.178 24.2789 101.178L22.0025 101.139Z" fill="#263238"/>
<path d="M36.5989 103.673C36.3441 103.443 36.0865 103.222 35.8541 103.009C35.1317 102.351 34.5829 101.234 34.2665 100.47C34.0827 100.035 33.9875 99.569 33.9865 99.0976V98.7364C33.9865 98.7364 35.1065 84.0672 35.3109 81.4996C35.5685 78.0612 36.0837 65.0048 34.1909 58.3688L24.8109 58.3268C24.6261 59.2732 21.8821 62.8656 21.7505 67.172C21.5909 72.3072 22.4533 81.3428 22.4533 81.3428C22.4001 82.04 21.6077 83.4232 21.3109 86.52C20.9749 89.9836 21.8149 97.7788 21.9437 99.75C21.9689 100.257 21.9913 100.73 22.0025 101.15C22.0025 101.646 22.0025 105.011 22.1789 106.033C22.4589 107.57 24.2845 107.36 24.3797 106.442C24.4749 105.524 24.2621 101.595 24.2677 101.189C24.2677 100.876 24.2901 100.464 24.3349 99.9852C24.5337 98.0252 26.8717 85.6352 27.3309 82.012C27.7285 78.848 28.8457 71.204 28.8457 71.204L30.6713 81.9924C30.3542 83.0118 30.1237 84.0562 29.9825 85.1144C29.7753 87.248 31.3825 97.6892 31.3825 98.7756V100.041V100.106C31.5085 100.646 32.7041 102.088 33.3845 103.026C33.8381 103.656 34.7033 104.457 35.7393 104.597C36.7361 104.72 37.2401 104.415 36.5989 103.673Z" fill="#FFBDA7"/>
<path d="M24.8277 58.3268C24.8277 58.3268 22.8677 61.2276 22.0025 63.7C20.7005 67.4576 21.7673 80.0716 21.7673 80.0716C21.7673 80.0716 24.7689 81.396 29.5373 81.0824C34.3057 80.7688 36.0893 79.6824 36.0893 79.6824C36.0893 79.6824 36.0893 71.596 35.8093 68.054C35.2885 61.1072 34.2021 58.3716 34.2021 58.3716L24.8277 58.3268Z" fill="#CCCCCC"/>
<path d="M24.7101 78.554C23.4529 76.7088 22.9125 69.5744 23.3101 65.7524C23.7077 61.9304 25.3317 60.2 26.6365 60.074C27.3765 60.0021 28.1084 59.8634 28.8233 59.6596L28.8989 58.3464L24.8277 58.3268C24.8277 58.3268 22.8677 61.2276 22.0025 63.7C20.7005 67.4576 21.7673 80.0716 21.7673 80.0716C21.7673 80.0716 24.7689 81.396 29.5373 81.0824C30.4921 81.018 31.3237 80.9228 32.0573 80.8024C29.4001 80.8444 25.9701 80.402 24.7101 78.554Z" fill="#818181"/>
<path d="M26.4825 46.69L23.7749 46.97L23.4333 51.9484L24.8333 58.3156C26.2781 59.9312 32.1945 60.3008 34.2133 58.3576C34.351 57.3127 34.4015 56.2581 34.3645 55.2048C35.7813 54.0204 35.5181 52.1248 35.2213 51.1308C34.5857 48.9804 33.0121 47.5132 32.0545 46.5808L30.2289 46.4352L26.4825 46.69Z" fill="#F0F0F0"/>
<path d="M26.4825 46.69L25.2729 46.8244C25.2729 46.8244 25.5529 47.9948 27.2329 48.958C28.2738 49.5852 29.4673 49.9136 30.6825 49.9072L26.4825 46.69Z" fill="#CCCCCC"/>
<path d="M30.677 49.9072C30.8262 48.7338 30.67 47.5417 30.2234 46.4464L31.4862 46.5472C31.4862 46.5472 32.5698 48.8488 30.677 49.9072Z" fill="#CCCCCC"/>
<path d="M26.0934 59.1108L24.0186 54.5664L24.8278 58.3268C25.1837 58.682 25.6168 58.9502 26.0934 59.1108V59.1108Z" fill="#E0E0E0"/>
<path d="M32.5782 35.868C33.1774 36.428 33.925 37.6096 33.8662 41.09C33.8158 44.0412 32.9002 44.7748 32.4382 44.9876C31.9762 45.2004 31.0886 45.0772 30.2234 44.9316V46.4464C30.6691 47.542 30.8254 48.7338 30.677 49.9072C28.871 49.2632 27.597 48.0648 26.477 46.69L26.4406 42.77C26.4406 42.77 25.9338 43.2852 25.0686 42.504C24.3518 41.86 24.1082 40.768 24.6598 40.18C24.8029 40.0393 24.9786 39.9362 25.1713 39.8799C25.3639 39.8236 25.5675 39.8159 25.7639 39.8575C25.9602 39.8991 26.1432 39.9887 26.2964 40.1183C26.4497 40.2478 26.5685 40.4133 26.6422 40.6C26.6422 40.6 27.961 40.7008 29.7418 39.6788C31.657 38.5672 32.2002 37.254 32.5782 35.868Z" fill="#FFBDA7"/>
<path d="M30.3324 40.32C30.3351 40.3712 30.3275 40.4224 30.3101 40.4707C30.2928 40.5189 30.266 40.5633 30.2313 40.601C30.1967 40.6388 30.1548 40.6693 30.1082 40.6908C30.0617 40.7123 30.0113 40.7242 29.96 40.726C29.8556 40.7322 29.7529 40.6973 29.6739 40.6288C29.5949 40.5602 29.5458 40.4635 29.5372 40.3592C29.5354 40.3081 29.5436 40.2571 29.5614 40.2092C29.5793 40.1612 29.6064 40.1173 29.6413 40.0798C29.6761 40.0424 29.718 40.0122 29.7645 39.9909C29.8111 39.9697 29.8613 39.9578 29.9124 39.956C29.964 39.9522 30.0157 39.9586 30.0647 39.9749C30.1137 39.9911 30.1591 40.0169 30.1981 40.0507C30.2371 40.0845 30.2691 40.1257 30.2921 40.172C30.3152 40.2182 30.3289 40.2685 30.3324 40.32V40.32Z" fill="#263238"/>
<path d="M33.4097 40.2192C33.4116 40.2703 33.4034 40.3213 33.3855 40.3692C33.3677 40.4172 33.3405 40.4611 33.3057 40.4986C33.2709 40.536 33.229 40.5662 33.1824 40.5875C33.1359 40.6087 33.0856 40.6206 33.0345 40.6224C32.9307 40.6293 32.8283 40.595 32.7496 40.5268C32.671 40.4587 32.6224 40.3622 32.6145 40.2584C32.6119 40.207 32.6196 40.1555 32.6371 40.1071C32.6546 40.0587 32.6817 40.0142 32.7166 39.9764C32.7516 39.9386 32.7938 39.9081 32.8407 39.8868C32.8876 39.8655 32.9382 39.8538 32.9897 39.8524C33.0938 39.8462 33.1962 39.8812 33.2748 39.9498C33.3534 40.0184 33.4018 40.1152 33.4097 40.2192V40.2192Z" fill="#263238"/>
<path d="M30.4528 42.9576L31.2928 43.2376C31.28 43.2942 31.2556 43.3475 31.2212 43.3942C31.1868 43.441 31.1432 43.4801 31.093 43.5093C31.0429 43.5384 30.9872 43.557 30.9296 43.5637C30.872 43.5704 30.8136 43.5652 30.758 43.5484C30.6405 43.5086 30.5431 43.4248 30.4861 43.3146C30.4292 43.2044 30.4173 43.0764 30.4528 42.9576V42.9576Z" fill="#F0997A"/>
<path d="M33.6197 38.9816L32.8945 38.4636C32.9233 38.4135 32.9622 38.37 33.0088 38.3358C33.0554 38.3016 33.1086 38.2776 33.165 38.2652C33.2214 38.2528 33.2798 38.2524 33.3364 38.2639C33.393 38.2754 33.4466 38.2986 33.4937 38.332C33.5906 38.4061 33.6569 38.5132 33.6801 38.6329C33.7033 38.7526 33.6818 38.8767 33.6197 38.9816Z" fill="#263238"/>
<path d="M26.6476 40.2388V41.4876C26.7274 41.4888 26.8065 41.4738 26.8803 41.4436C26.9541 41.4133 27.021 41.3685 27.0769 41.3117C27.1329 41.255 27.1768 41.1874 27.206 41.1133C27.2352 41.0391 27.2491 40.9597 27.2468 40.88C27.2465 40.7172 27.1846 40.5605 27.0734 40.4416C26.9622 40.3226 26.8101 40.2502 26.6476 40.2388Z" fill="#37474F"/>
<path d="M31.4946 39.7852L31.4862 42.2044L32.6146 41.8348L31.4946 39.7852Z" fill="#F0997A"/>
<path d="M30.2234 44.9316C29.3106 44.8112 27.4234 44.2624 27.1434 43.4924C27.2608 43.8778 27.491 44.2191 27.8042 44.4724C28.3642 44.968 30.229 45.542 30.229 45.542L30.2234 44.9316Z" fill="#F0997A"/>
<path d="M11.6314 41.4988C11.5446 42.5208 11.175 50.5568 11.2086 51.2512C11.2842 52.766 11.0798 54.4768 13.513 54.0512C15.6102 53.6928 23.4334 51.9512 23.4334 51.9512C23.4334 51.9512 24.2202 51.3296 24.601 49.8988C25.217 47.5832 24.4302 46.9028 24.4302 46.9028C23.2038 46.97 22.6046 46.998 21.6302 47.3396C20.1994 47.838 19.4294 48.0648 17.6822 48.6696C15.935 49.2744 14.7982 49.6832 14.7982 49.6832L14.3698 41.7732" fill="#FFBDA7"/>
<path d="M11.5753 42.3668C11.6248 41.9478 11.5257 41.5247 11.2953 41.1712C11.0297 40.8727 10.8702 40.4946 10.8417 40.096C10.7185 39.4016 10.6457 38.8248 10.6457 38.8248C10.6457 38.8248 10.5701 38.1724 10.8361 37.9232C10.9075 37.8423 11.0066 37.7911 11.1139 37.7797C11.2213 37.7683 11.3289 37.7975 11.4157 37.8616C11.3641 37.7424 11.3543 37.6092 11.3879 37.4837C11.4214 37.3582 11.4963 37.2476 11.6005 37.17C11.712 37.0997 11.8448 37.071 11.9754 37.0889C12.106 37.1068 12.2261 37.1703 12.3145 37.268C12.3145 37.268 12.1213 36.6688 12.6225 36.4476C12.7465 36.3797 12.8921 36.3631 13.0282 36.4013C13.1643 36.4395 13.28 36.5295 13.3505 36.652C13.3124 36.4873 13.3402 36.3141 13.4281 36.1697C13.5161 36.0252 13.6571 35.921 13.8209 35.8792C14.1513 35.7672 14.5097 35.9212 14.8625 36.9992C15.1375 37.0725 15.3836 37.2278 15.5681 37.4444C15.7919 38.103 15.9449 38.7835 16.0245 39.4744C16.0693 39.8412 15.7781 40.4712 15.3105 40.936C14.8877 41.3588 14.3613 41.8236 14.4145 43.0948L11.5753 42.3668Z" fill="#FFBDA7"/>
<path d="M14.871 36.9852C14.6114 36.9123 14.3464 36.8599 14.0786 36.8284C13.933 36.8088 13.2722 37.4892 13.0874 37.6348C12.9026 37.7804 13.0874 38.3488 13.6754 38.276C14.2634 38.2032 14.4202 38.1612 14.4202 38.1612C14.4625 38.2489 14.531 38.3213 14.6162 38.3684C14.6162 38.3684 12.9362 39.2084 12.5974 40.8128C12.8777 40.2584 13.2573 39.7601 13.7174 39.3428C14.0887 39.0238 14.5084 38.7658 14.9606 38.5784C14.9606 38.5784 14.465 38.2228 14.4454 37.996C14.1725 38.0804 13.8905 38.1321 13.6054 38.15C13.5074 38.1562 13.4101 38.1292 13.3293 38.0733C13.2486 38.0174 13.189 37.9359 13.1602 37.842C13.121 37.716 14.0618 36.89 14.0618 36.89L14.871 36.9852Z" fill="#F28F8F"/>
<path d="M13.1601 39.06C13.2094 39.1135 13.2739 39.1507 13.3449 39.1664C13.5045 39.1944 13.5717 39.0488 13.6249 38.9284C13.7139 38.7271 13.7487 38.5061 13.7257 38.2872C13.7216 38.2697 13.7216 38.2515 13.7257 38.234C13.7271 38.2253 13.7311 38.2172 13.737 38.2107C13.743 38.2043 13.7508 38.1997 13.7593 38.1976C13.7873 38.1976 13.8097 38.2172 13.8237 38.2424C13.8706 38.3387 13.9091 38.439 13.9385 38.542C13.9597 38.5948 13.989 38.6439 14.0253 38.6876C14.0645 38.7324 14.1149 38.7436 14.1569 38.78C14.1989 38.8164 14.1877 38.9396 14.0925 38.9172C14.0235 38.9004 13.9611 38.8634 13.9133 38.8108C13.8265 39.2588 13.4569 39.522 13.1181 39.27C13.1181 39.6032 13.0565 39.9196 12.6365 39.9196C12.5427 39.9276 12.4484 39.9106 12.3633 39.8703C12.2782 39.8299 12.2053 39.7677 12.1521 39.69C12.1569 39.7808 12.135 39.871 12.0892 39.9496C12.0435 40.0282 11.9758 40.0917 11.8945 40.1324C11.8042 40.1811 11.6994 40.1957 11.5992 40.1736C11.499 40.1515 11.41 40.0941 11.3485 40.012C11.3261 39.9762 11.3065 39.9388 11.2897 39.9C11.2885 39.8935 11.2885 39.8869 11.2897 39.8804C11.2897 39.8804 11.2897 39.8804 11.2897 39.8804L11.3373 39.9252C11.3902 39.9819 11.456 40.025 11.5291 40.0509C11.6023 40.0767 11.6805 40.0845 11.7573 40.0736C11.8088 40.0444 11.853 40.0042 11.887 39.9557C11.9209 39.9073 11.9435 39.8519 11.9533 39.7936C11.9839 39.6082 11.9839 39.419 11.9533 39.2336C11.951 39.2273 11.951 39.2203 11.9533 39.214C11.9533 39.1972 11.9869 39.214 12.0009 39.214C12.0737 39.2952 12.1213 39.396 12.1885 39.494C12.2311 39.5517 12.2869 39.5983 12.3512 39.63C12.4155 39.6617 12.4865 39.6775 12.5581 39.676C12.8577 39.676 12.9333 39.3064 12.9277 39.0656C12.9277 38.9872 12.9277 38.906 12.9277 38.8276C12.9277 38.8276 12.9277 38.7996 12.9445 38.8024C12.9853 38.8352 13.0187 38.8762 13.0425 38.9228C13.0755 38.9735 13.115 39.0197 13.1601 39.06V39.06Z" fill="#F28F8F"/>
<path d="M69.9133 40.6224C70.421 40.6777 70.9116 40.8379 71.3541 41.0929C71.7966 41.3479 72.1813 41.6921 72.4837 42.1036C73.3993 43.3216 76.9273 53.1244 76.9273 53.1244H73.4413L69.3981 44.9848L69.9133 40.6224Z" fill="#FFA8A7"/>
<path d="M69.7734 40.6224C70.479 40.5916 71.8846 40.9024 72.6686 42.0224C73.4526 43.1424 75.687 49.4004 75.687 49.4004C75.687 49.4004 74.805 51.0496 72.1646 50.848L70.0478 47.096L69.7734 40.6224Z" fill="#CCCCCC"/>
<path d="M59.4386 95.5136C59.3154 96.2089 59.249 96.9131 59.2398 97.6192C59.2146 98.8988 58.9794 99.3552 58.9598 100.405C58.9234 101.604 59.1306 102.052 59.6178 102.726C60.105 103.401 61.3818 104.014 61.9222 102.875C62.4626 101.735 62.3926 100.988 62.2218 99.7948C62.051 98.602 62.0202 97.9076 61.9166 96.978C61.8242 96.1604 61.715 95.5388 61.715 95.5388L59.4386 95.5136Z" fill="#263238"/>
<path d="M63.0703 85.4532L58.8563 85.3748C58.9207 88.1748 59.3659 92.8732 59.4387 95.5136C59.4527 96.0092 59.4387 99.3748 59.6151 100.397C59.8951 101.931 61.7179 101.724 61.8159 100.806C61.9139 99.8872 61.6983 95.9588 61.7039 95.5528C61.6871 93.8728 62.4823 89.4432 62.8967 86.4024C62.9191 86.254 63.0507 85.5988 63.0703 85.4532Z" fill="#FFA8A7"/>
<path d="M69.2665 93.324C69.2665 93.324 69.0481 93.324 69.0145 93.5144C68.9809 93.7048 68.9641 94.0576 68.8745 94.4048C68.7307 94.9524 68.6805 95.5204 68.7261 96.0848C68.7989 96.4768 69.6949 97.062 70.3081 97.1656C70.9213 97.2692 71.7865 97.874 72.2681 98.3276C73.039 98.9658 73.9934 99.3414 74.9925 99.4C76.0173 99.4 76.7285 99.0584 77.0673 98.5096C77.4061 97.9608 76.7593 97.8964 75.5889 97.1348L74.6817 96.5468C72.8281 95.3344 72.1477 94.6876 71.6241 93.4668L69.2665 93.324Z" fill="#263238"/>
<path d="M71.6381 92.68C71.6073 91.8064 72.0553 85.4 72.0553 85.4L68.4293 85.8088C69.2861 90.9244 69.3561 92.6688 69.2693 93.4136C69.2509 93.4829 69.2434 93.5547 69.2469 93.6264C69.2469 94.6204 70.3669 95.158 71.2461 95.8188C71.5933 96.082 72.4809 96.8884 73.5225 97.2412C74.1945 97.4708 75.4405 97.5576 75.6001 97.1488C74.5361 96.3368 73.0801 95.2728 72.2401 94.3488C71.8229 93.8756 71.6801 93.5368 71.6381 92.68Z" fill="#FFA8A7"/>
<path d="M59.9593 56.5432C58.6713 62.1936 59.9061 75.7176 59.9061 75.7176C59.8473 76.4176 59.0437 77.798 58.7469 80.8836C58.3941 84.5236 59.3965 94.2872 59.3965 94.2872C59.3965 94.2872 60.3597 95.0068 61.7569 94.3376C61.7569 94.3376 64.3077 79.9988 64.7669 76.3728C65.1645 73.2116 66.2817 65.5676 66.2817 65.5676L68.1073 76.356C67.7887 77.375 67.5582 78.4195 67.4185 79.478C67.2113 81.6116 69.2861 92.3104 69.2861 92.3104C69.2861 92.3104 70.2577 92.8228 71.6381 92.2656C71.6381 92.2656 72.5593 78.442 72.7581 75.8744C73.0185 72.4332 72.3157 61.7512 71.9685 56.7448L59.9593 56.5432Z" fill="#818181"/>
<path opacity="0.6" d="M66.2818 65.5676L66.7494 62.3476C66.7494 62.3476 69.4682 61.9864 70.7002 60.8272C70.3479 61.3794 69.8782 61.8471 69.3246 62.197C68.7709 62.5469 68.1469 62.7704 67.497 62.8516L67.0154 65.7636L67.9254 75.2836L66.2818 65.5676Z" fill="#263238"/>
<path d="M71.2743 50.0416C71.4395 51.5704 72.0555 57.2264 72.0555 57.2264C67.0155 59.92 60.7407 58.1336 59.7803 57.0248C60.3281 55.1577 61.1288 53.3743 62.1603 51.7244L61.3763 48.2048C61.3763 48.2048 63.3363 45.094 61.1691 41.006L64.2127 40.6784L67.9955 40.5552L69.9023 40.6224C70.5043 41.1824 71.2379 42.8148 71.8623 44.3884C72.2627 45.4048 72.6911 47.04 71.2743 50.0416Z" fill="#F0F0F0"/>
<path d="M61.7599 49.882C61.8047 50.0584 63.0731 51.7412 63.6527 52.122C64.2323 52.5028 62.6251 53.0012 62.3983 53.914C61.9391 55.7648 64.8007 58.114 68.3539 58.464C64.3359 59.122 60.5139 57.8844 59.7803 57.036C60.3259 55.1646 61.1267 53.3772 62.1603 51.7244L61.7599 49.882Z" fill="#E0E0E0"/>
<path d="M61.0961 41.258C60.0392 41.8258 59.2294 42.7642 58.8225 43.8928C58.1169 45.9396 56.2381 51.226 55.5157 53.1328H58.9877L61.3873 48.2132C61.9221 46.1664 61.9277 42.3388 61.0961 41.258Z" fill="#FFA8A7"/>
<path d="M61.1802 41.006C59.5198 41.3336 58.9402 42.8792 58.271 44.6908C57.5542 46.6508 56.5406 49.2968 56.5406 49.2968C56.5406 49.2968 57.4786 51.2736 60.3178 50.778L61.8802 47.2472C62.2825 46.2289 62.4291 45.1275 62.3071 44.0395C62.185 42.9514 61.7981 41.9098 61.1802 41.006V41.006Z" fill="#CCCCCC"/>
<path d="M67.3121 38.4216H66.0241C65.3205 38.422 64.6239 38.2837 63.9738 38.0146C63.3238 37.7456 62.7332 37.351 62.2357 36.8536C61.7382 36.3561 61.3437 35.7655 61.0746 35.1154C60.8056 34.4654 60.6673 33.7687 60.6677 33.0652V33.0652C60.6677 31.4738 61.2998 29.9476 62.4251 28.8223C63.5504 27.697 65.0767 27.0648 66.6681 27.0648V27.0648C68.2592 27.0655 69.785 27.698 70.9102 28.8231C72.0353 29.9482 72.6677 31.474 72.6685 33.0652V33.0652C72.6688 33.7687 72.5305 34.4654 72.2615 35.1154C71.9924 35.7655 71.5979 36.3561 71.1004 36.8536C70.603 37.351 70.0123 37.7456 69.3623 38.0146C68.7123 38.2837 68.0156 38.422 67.3121 38.4216V38.4216Z" fill="#263238"/>
<path d="M57.2435 41.4008C58.3057 41.4008 59.3244 40.979 60.0757 40.2282C60.8271 39.4774 61.2495 38.459 61.2503 37.3968V30.4864C60.1881 30.4864 59.1694 30.9081 58.418 31.659C57.6667 32.4098 57.2442 33.4282 57.2435 34.4904V41.4008Z" fill="#263238"/>
<path d="M70.325 29.876C70.9606 30.2512 71.7418 31.836 71.6662 35.196C71.599 38.0296 70.6834 38.7296 70.2214 38.9312C69.7594 39.1328 68.8718 39.0096 68.0066 38.8668V40.5664C67.953 40.9252 67.7598 41.2483 67.469 41.4652C66.7662 41.9048 65.9318 41.7452 65.4642 41.5688C64.431 41.1964 64.2238 40.6896 64.2238 40.6896L64.2434 36.7696C64.2434 36.7696 63.7338 37.2624 62.8714 36.5092C62.1602 35.8876 61.9194 34.8292 62.4766 34.2692C62.6204 34.1352 62.794 34.0373 62.983 33.9835C63.1721 33.9297 63.3712 33.9217 63.564 33.9599C63.7567 33.9982 63.9377 34.0818 64.0918 34.2037C64.246 34.3256 64.369 34.4824 64.4506 34.6612C64.4506 34.6612 64.9574 34.7032 65.4642 33.7624C65.4642 33.768 67.8666 32.0096 70.325 29.876Z" fill="#FFA8A7"/>
<path d="M68.222 34.216C68.2225 34.2856 68.2025 34.3538 68.1646 34.4121C68.1266 34.4705 68.0724 34.5164 68.0086 34.5442C67.9448 34.572 67.8743 34.5805 67.8057 34.5686C67.7371 34.5568 67.6736 34.525 67.6229 34.4773C67.5722 34.4297 67.5366 34.3682 67.5205 34.3005C67.5044 34.2327 67.5085 34.1618 67.5324 34.0964C67.5562 34.031 67.5987 33.9741 67.6546 33.9326C67.7105 33.8912 67.7774 33.8671 67.8469 33.8632C67.9432 33.8609 68.0366 33.8967 68.1068 33.9627C68.177 34.0287 68.2184 34.1197 68.222 34.216V34.216Z" fill="#263238"/>
<path d="M68.6001 36.876L69.4401 37.1392C69.4257 37.1972 69.3992 37.2516 69.3624 37.2987C69.3255 37.3458 69.2792 37.3846 69.2264 37.4126C69.1735 37.4406 69.1154 37.4572 69.0557 37.4612C68.9961 37.4652 68.9362 37.4567 68.8801 37.436C68.7708 37.396 68.681 37.3157 68.6289 37.2116C68.5769 37.1075 68.5666 36.9875 68.6001 36.876V36.876Z" fill="#F28F8F"/>
<path d="M71.2265 33.1884L70.5068 32.6872C70.5369 32.6388 70.5765 32.597 70.6232 32.5645C70.6699 32.5319 70.7228 32.5091 70.7786 32.4976C70.8344 32.4861 70.8919 32.486 70.9478 32.4974C71.0036 32.5088 71.0565 32.5315 71.1033 32.564C71.1994 32.6329 71.2656 32.7358 71.2885 32.8518C71.3114 32.9678 71.2892 33.0882 71.2265 33.1884V33.1884Z" fill="#263238"/>
<path d="M67.9366 32.9252L67.119 33.2416C67.0963 33.1895 67.0844 33.1334 67.0841 33.0767C67.0837 33.0199 67.0948 32.9636 67.1168 32.9113C67.1388 32.859 67.1712 32.8116 67.212 32.7721C67.2527 32.7327 67.3011 32.7019 67.3542 32.6816C67.464 32.6401 67.5855 32.6421 67.6939 32.6875C67.8022 32.7328 67.889 32.8178 67.9366 32.9252V32.9252Z" fill="#263238"/>
<path d="M71.0307 34.216C71.0311 34.2856 71.0111 34.3538 70.9732 34.4121C70.9352 34.4705 70.881 34.5164 70.8172 34.5442C70.7534 34.572 70.6829 34.5805 70.6143 34.5686C70.5457 34.5568 70.4822 34.525 70.4315 34.4773C70.3808 34.4297 70.3452 34.3682 70.3291 34.3005C70.313 34.2327 70.3171 34.1618 70.341 34.0964C70.3648 34.031 70.4073 33.9741 70.4632 33.9326C70.5191 33.8912 70.586 33.8671 70.6555 33.8632C70.7518 33.8609 70.8452 33.8967 70.9154 33.9627C70.9856 34.0287 71.027 34.1197 71.0307 34.216V34.216Z" fill="#263238"/>
<path d="M69.3196 34.0116L69.3784 36.1564L70.5068 35.8064L69.3196 34.0116Z" fill="#F28F8F"/>
<path d="M68.0065 38.8556C67.0965 38.7352 65.2233 38.1976 64.9265 37.4556C65.0442 37.8308 65.2738 38.161 65.5845 38.402C66.1445 38.8808 68.0037 39.4212 68.0037 39.4212L68.0065 38.8556Z" fill="#F28F8F"/>
<path d="M60.9504 30.6656L60.8132 29.092C60.9159 29.0775 61.0204 29.0841 61.1204 29.1113C61.2204 29.1385 61.3138 29.1857 61.395 29.2501C61.4762 29.3146 61.5435 29.3948 61.5927 29.4861C61.6419 29.5773 61.672 29.6776 61.6812 29.7808C61.6944 29.9935 61.6262 30.2032 61.4905 30.3674C61.3548 30.5317 61.1617 30.6383 60.9504 30.6656V30.6656Z" fill="#263238"/>
<path d="M60.8945 31.08L59.6205 30.1476C59.6776 30.0609 59.7516 29.9867 59.8381 29.9295C59.9247 29.8722 60.0219 29.8331 60.124 29.8146C60.2261 29.796 60.3309 29.7983 60.432 29.8214C60.5332 29.8444 60.6286 29.8878 60.7126 29.9488C60.8804 30.0793 60.9926 30.2686 61.0263 30.4786C61.0601 30.6885 61.013 30.9034 60.8945 31.08V31.08Z" fill="#263238"/>
<path d="M64.4504 34.6668V36.1564C64.7193 36.1564 64.9771 36.0496 65.1672 35.8595C65.3573 35.6694 65.4641 35.4116 65.4641 35.1428V33.768L64.4504 34.6668Z" fill="#263238"/>
<path d="M86.9736 53.1244H51.3716V77.1764H86.9736V53.1244Z" fill="#CCCCCC"/>
<path opacity="0.5" d="M86.9736 53.1244H51.3716V77.1764H86.9736V53.1244Z" fill="#455A64"/>
<path d="M77.8071 64.96C77.8071 69.4263 74.1864 73.047 69.7201 73.047C65.2537 73.047 61.6331 69.4263 61.6331 64.96C61.6331 60.4937 65.2537 56.873 69.7201 56.873C74.1864 56.873 77.8071 60.4937 77.8071 64.96Z" stroke="#455A64" stroke-width="0.626"/>
<ellipse cx="69.7201" cy="64.96" rx="5.87999" ry="5.88" fill="#455A64"/>
<path d="M87.1137 77.3164H51.2401V52.9844H87.1137V77.3164ZM51.5117 77.0364H86.8337V53.2644H51.5201L51.5117 77.0364Z" fill="white"/>
<path d="M51.2402 53.83C51.061 54.3312 50.6662 54.5692 50.3694 55.0732C50.0726 55.5772 49.9578 57.0696 50.2854 57.694C50.5359 58.1311 50.8881 58.5013 51.3122 58.7733C51.7362 59.0453 52.2196 59.211 52.7214 59.2564C53.1428 59.2737 53.5591 59.1581 53.9114 58.926C54.0683 58.8132 54.2063 58.6762 54.3202 58.52C54.4308 58.3522 54.514 58.1679 54.5666 57.974C54.5712 57.958 54.5798 57.9436 54.5918 57.932C54.6065 57.9214 54.6241 57.9156 54.6422 57.9152C54.7697 57.8979 54.8899 57.8456 54.9894 57.764C55.0382 57.722 55.0774 57.67 55.1045 57.6116C55.1315 57.5531 55.1457 57.4896 55.1462 57.4252C55.1366 57.3433 55.1075 57.2648 55.0612 57.1966C55.0149 57.1284 54.9528 57.0723 54.8802 57.0332C54.7342 56.9551 54.579 56.8958 54.4182 56.8568C54.0318 56.7336 53.6734 56.5376 53.2982 56.392C52.537 56.1225 51.8373 55.7036 51.2402 55.16V53.83Z" fill="#FFA8A7"/>
<path d="M81.7406 51.7552C80.1082 52.0212 79.6406 52.9844 79.6406 52.9844H80.9734C80.9734 52.9844 81.1414 53.4324 80.6934 55.1124C80.5366 55.7004 81.4074 55.7172 81.4354 55.496C81.5922 55.86 82.7374 56.364 83.5942 55.7956C84.3782 55.2748 84.731 54.4796 84.5546 52.9956C84.255 51.3128 82.0402 51.7076 81.7406 51.7552Z" fill="#FFA8A7"/>
<path d="M72.8935 68.32V62.048H71.4061V65.9187L68.512 62.048H67.1053V68.32H68.6016V64.4582L71.4868 68.32H72.8935Z" fill="white"/>
<path d="M65.8 63.56H68.04V64.68H65.8V63.56Z" fill="white"/>
<path d="M71.96 63.56H74.2V64.68H71.96V63.56Z" fill="white"/>
<path d="M65.8 65.8H68.04V66.92H65.8V65.8Z" fill="white"/>
<path d="M71.96 65.8H74.2V66.92H71.96V65.8Z" fill="white"/>
</svg>
