<svg width="21" height="20" viewBox="0 0 21 20" fill="none" xmlns="http://www.w3.org/2000/svg">
<path fill-rule="evenodd" clip-rule="evenodd" d="M11.3088 0.209663C11.4685 0.0663223 11.6797 -0.00881318 11.896 0.000824899C16.4668 0.137655 20.2868 3.4558 20.9791 7.89063C20.9835 7.91711 20.9835 7.94411 20.9791 7.97059C20.994 8.18043 20.9231 8.38745 20.7821 8.54585C20.641 8.70425 20.4414 8.80099 20.2275 8.81466L12.548 9.3211C12.294 9.34362 12.0422 9.26005 11.8543 9.09092C11.6664 8.92179 11.5599 8.68278 11.5609 8.43261L11.0447 0.889316V0.764928C11.0541 0.552776 11.1491 0.353003 11.3088 0.209663ZM10.7821 11.2936L17.4382 10.8671L17.4835 10.8848C17.7693 10.8895 18.0416 11.0054 18.2403 11.207C18.439 11.4087 18.5479 11.6795 18.5431 11.9599C18.2808 15.782 15.4786 18.9755 11.6652 19.7982C7.8518 20.621 3.9426 18.8754 2.0702 15.5139C1.51964 14.5457 1.17172 13.4794 1.04688 12.3775C0.998453 12.051 0.977252 11.7212 0.983484 11.3913C0.996104 7.32706 3.8897 3.81907 7.93849 2.9595C8.42862 2.86776 8.92004 3.11248 9.13388 3.55479C9.18712 3.63505 9.22972 3.72164 9.26066 3.81245C9.33657 4.98405 9.41529 6.14455 9.49369 7.30015C9.5556 8.21277 9.6173 9.12233 9.67724 10.0319C9.67415 10.2462 9.70782 10.4594 9.77686 10.6627C9.93937 11.0627 10.3438 11.3165 10.7821 11.2936Z" fill="#7C7F93"/>
</svg>
