<svg width="25" height="24" viewBox="0 0 25 24" fill="none" xmlns="http://www.w3.org/2000/svg">
<path fill-rule="evenodd" clip-rule="evenodd" d="M8.6523 1.9992H17.3223C20.7123 1.9992 22.9823 4.3792 22.9823 7.9192V16.0902C22.9823 19.6202 20.7123 21.9992 17.3223 21.9992H8.6523C5.2623 21.9992 2.9823 19.6202 2.9823 16.0902V7.9192C2.9823 4.3792 5.2623 1.9992 8.6523 1.9992ZM12.9723 9.0602C12.5023 9.0602 12.1123 8.6692 12.1123 8.1902C12.1123 7.7002 12.5023 7.3102 12.9923 7.3102C13.4723 7.3102 13.8623 7.7002 13.8623 8.1902C13.8623 8.6692 13.4723 9.0602 12.9723 9.0602ZM13.8523 15.7802C13.8523 16.2602 13.4623 16.6502 12.9723 16.6502C12.4923 16.6502 12.1023 16.2602 12.1023 15.7802V11.3602C12.1023 10.8792 12.4923 10.4802 12.9723 10.4802C13.4623 10.4802 13.8523 10.8792 13.8523 11.3602V15.7802Z" fill="#7C7F93"/>
</svg>
