<svg width="145" height="29" viewBox="0 0 145 29" fill="none" xmlns="http://www.w3.org/2000/svg">
<path d="M46.2113 7V27.8224C43.9106 27.8224 42.0455 25.9573 42.0455 23.6565V18.9625H33.1483V23.6565C33.1483 25.9573 31.2832 27.8224 28.9824 27.8224V7C31.2832 7 33.1483 8.86513 33.1483 11.1659V15.5617H42.0455V11.1659C42.0455 8.86513 43.9106 7 46.2113 7Z" fill="#E2698D"/>
<path d="M65.6362 19.2011C65.6362 19.7977 65.5965 20.3347 65.5172 20.812H53.4659C53.565 22.0053 53.9816 22.94 54.7156 23.6162C55.4496 24.2924 56.3522 24.6304 57.4234 24.6304C58.9708 24.6304 60.0718 23.9642 60.7264 22.6317H65.2196C64.7435 24.2228 63.831 25.5353 62.482 26.5695C61.1331 27.5838 59.4766 28.0909 57.5127 28.0909C55.9257 28.0909 54.4974 27.7429 53.2278 27.0468C51.978 26.3308 50.9961 25.3265 50.2819 24.0338C49.5876 22.7411 49.2404 21.2495 49.2404 19.5591C49.2404 17.8487 49.5876 16.3472 50.2819 15.0545C50.9762 13.7618 51.9483 12.7674 53.198 12.0714C54.4478 11.3753 55.886 11.0273 57.5127 11.0273C59.0799 11.0273 60.4784 11.3654 61.7084 12.0415C62.9581 12.7177 63.9202 13.6823 64.5947 14.9352C65.289 16.1682 65.6362 17.5902 65.6362 19.2011ZM61.3215 18.0078C61.3017 16.9339 60.9149 16.0787 60.161 15.4423C59.4072 14.786 58.4848 14.4579 57.3937 14.4579C56.3621 14.4579 55.4893 14.7761 54.7751 15.4125C54.0808 16.029 53.6543 16.8941 53.4956 18.0078H61.3215Z" fill="#E2698D"/>
<path d="M72.8428 13.8613C73.3784 12.9862 74.0727 12.3001 74.9258 11.8029C75.7986 11.3057 76.7905 11.0571 77.9014 11.0571V15.4423H76.8004C75.4911 15.4423 74.4992 15.7506 73.8248 16.3671C73.1701 16.9836 72.8428 18.0576 72.8428 19.5889V27.8224H68.6769V11.2957H72.8428V13.8613Z" fill="#E2698D"/>
<path d="M99.3646 7L92.6159 25.4471C92.094 26.8737 90.7367 27.8224 89.2176 27.8224C87.6986 27.8224 86.3413 26.8737 85.8194 25.4471L79.0707 7H79.2389C81.8093 7 84.0968 8.63048 84.9353 11.0603L89.2474 23.5565L93.5339 11.0695C94.3696 8.63492 96.6594 7 99.2334 7H99.3646Z" fill="#E2698D"/>
<path d="M117.187 19.2011C117.187 19.7977 117.147 20.3347 117.068 20.812H105.016C105.116 22.0053 105.532 22.94 106.266 23.6162C107 24.2924 107.903 24.6304 108.974 24.6304C109.091 24.6304 109.206 24.6266 109.318 24.619C111.61 24.4628 113.733 22.6317 116.03 22.6317H116.77C116.294 24.2228 115.382 25.5353 114.033 26.5695C112.684 27.5838 111.027 28.0909 109.063 28.0909C107.476 28.0909 106.048 27.7429 104.778 27.0468C103.529 26.3308 102.547 25.3265 101.832 24.0338C101.138 22.7411 100.791 21.2495 100.791 19.5591C100.791 17.8487 101.138 16.3472 101.832 15.0545C102.527 13.7618 103.499 12.7674 104.749 12.0714C105.998 11.3753 107.437 11.0273 109.063 11.0273C110.63 11.0273 112.029 11.3654 113.259 12.0415C114.509 12.7177 115.471 13.6823 116.145 14.9352C116.84 16.1682 117.187 17.5902 117.187 19.2011ZM112.872 18.0078C112.852 16.9339 112.465 16.0787 111.712 15.4423C110.958 14.786 110.035 14.4579 108.944 14.4579C107.913 14.4579 107.04 14.7761 106.326 15.4125C105.631 16.029 105.205 16.8941 105.046 18.0078H112.872Z" fill="#E2698D"/>
<path d="M126.536 28.0909C125.187 28.0909 123.977 27.8523 122.906 27.375C121.834 26.8778 120.981 26.2115 120.346 25.3762C119.732 24.541 119.394 23.6162 119.335 22.6019H123.53C123.61 23.2383 123.917 23.7653 124.453 24.183C125.008 24.6006 125.693 24.8094 126.506 24.8094C127.3 24.8094 127.915 24.6503 128.351 24.3321C128.807 24.0139 129.035 23.6062 129.035 23.109C129.035 22.5721 128.758 22.1743 128.202 21.9158C127.667 21.6373 126.804 21.339 125.613 21.0208C124.383 20.7225 123.372 20.4143 122.578 20.0961C121.805 19.7779 121.13 19.2906 120.555 18.6343C119.999 17.978 119.722 17.093 119.722 15.9793C119.722 15.0645 119.98 14.2292 120.495 13.4734C121.031 12.7177 121.785 12.1211 122.757 11.6836C123.749 11.246 124.909 11.0273 126.238 11.0273C128.202 11.0273 129.769 11.5245 130.94 12.5188C132.11 13.4933 132.755 14.8159 132.874 16.4864H128.887C128.827 15.8301 128.549 15.3131 128.053 14.9352C127.577 14.5374 126.933 14.3386 126.119 14.3386C125.365 14.3386 124.78 14.4778 124.364 14.7562C123.967 15.0346 123.768 15.4224 123.768 15.9196C123.768 16.4765 124.046 16.9041 124.602 17.2024C125.157 17.4808 126.02 17.7692 127.19 18.0675C128.381 18.3658 129.363 18.6741 130.136 18.9923C130.91 19.3105 131.575 19.8077 132.13 20.4839C132.705 21.1402 133.003 22.0152 133.023 23.109C133.023 24.0637 132.755 24.9188 132.219 25.6746C131.704 26.4303 130.95 27.0269 129.958 27.4644C128.986 27.8821 127.845 28.0909 126.536 28.0909Z" fill="#E2698D"/>
<path d="M141.293 14.7264V22.7212C141.293 23.2781 141.422 23.6858 141.679 23.9443C141.957 24.183 142.413 24.3023 143.048 24.3023H144.982V27.8224H142.364C138.853 27.8224 137.097 26.1121 137.097 22.6914V14.7264H135.133V11.2957H137.097V7.20882H137.206C139.463 7.20882 141.293 9.0386 141.293 11.2957H144.982V14.7264H141.293Z" fill="#E2698D"/>
<path fill-rule="evenodd" clip-rule="evenodd" d="M2.76961 3.52932C2.76961 2.56675 3.54993 1.78644 4.5125 1.78644C5.47506 1.78644 6.25538 2.56675 6.25538 3.52932C6.25538 4.49189 5.47506 5.2722 4.5125 5.2722C3.54993 5.2722 2.76961 4.49189 2.76961 3.52932ZM8.04182 3.52932C8.04182 5.20929 6.86803 6.61512 5.29584 6.97141V8.94099H8.04094V10.588H5.29584V12.5576C6.86789 12.914 8.04153 14.3197 8.04153 15.9996C8.04153 17.9488 6.4614 19.5289 4.51221 19.5289C2.56302 19.5289 0.982891 17.9488 0.982891 15.9996C0.982891 14.3483 2.117 12.9618 3.64882 12.5767V10.588H0.9823L0.9823 8.94099H3.64882V6.9522C2.11714 6.56694 0.983175 5.18056 0.983175 3.52932C0.983175 1.58013 2.56331 0 4.5125 0C6.46169 0 8.04182 1.58013 8.04182 3.52932ZM16.9825 15.9996C16.9825 17.9488 15.4023 19.5289 13.4532 19.5289C11.504 19.5289 9.92383 17.9488 9.92383 15.9996C9.92383 14.0504 11.504 12.4703 13.4532 12.4703C15.4023 12.4703 16.9825 14.0504 16.9825 15.9996ZM8.04153 24.9406C8.04153 26.8898 6.4614 28.4699 4.51221 28.4699C2.56302 28.4699 0.982891 26.8898 0.982891 24.9406C0.982891 22.9914 2.56302 21.4113 4.51221 21.4113C6.4614 21.4113 8.04153 22.9914 8.04153 24.9406ZM13.4532 28.4699C15.4023 28.4699 16.9825 26.8898 16.9825 24.9406C16.9825 22.9914 15.4023 21.4113 13.4532 21.4113C11.504 21.4113 9.92383 22.9914 9.92383 24.9406C9.92383 26.8898 11.504 28.4699 13.4532 28.4699Z" fill="#E2698D"/>
</svg>
