<svg width="22" height="20" viewBox="0 0 22 20" fill="none" xmlns="http://www.w3.org/2000/svg">
<path fill-rule="evenodd" clip-rule="evenodd" d="M8.87777 9.23C8.44027 9.23 8.09434 9.57 8.09434 10C8.09434 10.42 8.44027 10.77 8.87777 10.77H14.9824V15.55C14.9824 18 12.9577 20 10.4548 20H5.49986C3.00713 20 0.982422 18.01 0.982422 15.56V4.45C0.982422 1.99 3.01731 0 5.51004 0H10.4752C12.9577 0 14.9824 1.99 14.9824 4.44V9.23H8.87777ZM18.6126 6.5402L21.5326 9.4502C21.6826 9.6002 21.7626 9.7902 21.7626 10.0002C21.7626 10.2002 21.6826 10.4002 21.5326 10.5402L18.6126 13.4502C18.4626 13.6002 18.2626 13.6802 18.0726 13.6802C17.8726 13.6802 17.6726 13.6002 17.5226 13.4502C17.2226 13.1502 17.2226 12.6602 17.5226 12.3602L19.1226 10.7702H14.9826V9.2302H19.1226L17.5226 7.6402C17.2226 7.3402 17.2226 6.8502 17.5226 6.5502C17.8226 6.2402 18.3126 6.2402 18.6126 6.5402Z" fill="#7C7F93"/>
</svg>
