<svg width="18" height="20" viewBox="0 0 18 20" fill="none" xmlns="http://www.w3.org/2000/svg">
<path fill-rule="evenodd" clip-rule="evenodd" d="M5.90816 14.39H11.2943C11.7002 14.39 12.0369 14.05 12.0369 13.64C12.0369 13.23 11.7002 12.9 11.2943 12.9H5.90816C5.50222 12.9 5.16559 13.23 5.16559 13.64C5.16559 14.05 5.50222 14.39 5.90816 14.39ZM9.2547 7.9H5.90816C5.50222 7.9 5.16559 8.24 5.16559 8.65C5.16559 9.06 5.50222 9.39 5.90816 9.39H9.2547C9.66064 9.39 9.99727 9.06 9.99727 8.65C9.99727 8.24 9.66064 7.9 9.2547 7.9ZM16.3205 7.02561C16.5532 7.02292 16.8066 7.02 17.0369 7.02C17.2844 7.02 17.4824 7.22 17.4824 7.47V15.51C17.4824 17.99 15.4923 20 13.0369 20H5.15569C2.58143 20 0.482422 17.89 0.482422 15.29V4.51C0.482422 2.03 2.48242 0 4.94777 0H10.2349C10.4923 0 10.6903 0.21 10.6903 0.46V3.68C10.6903 5.51 12.1854 7.01 13.9973 7.02C14.4205 7.02 14.7936 7.02316 15.1201 7.02593C15.3741 7.02809 15.6 7.03 15.7993 7.03C15.9402 7.03 16.1229 7.02789 16.3205 7.02561ZM16.5935 5.566C15.7796 5.569 14.8202 5.566 14.1301 5.559C13.0351 5.559 12.1331 4.648 12.1331 3.542V0.906C12.1331 0.475 12.6509 0.261 12.947 0.572C13.4828 1.13476 14.2193 1.90834 14.9523 2.67837C15.6834 3.44632 16.4111 4.21074 16.9331 4.759C17.2222 5.062 17.0103 5.565 16.5935 5.566Z" fill="#7C7F93"/>
</svg>
