<svg width="172" height="172" viewBox="0 0 172 172" fill="none" xmlns="http://www.w3.org/2000/svg">
<g clip-path="url(#clip0_1_1737)">
<path opacity="0.7" d="M23.3679 57.479C23.3679 57.479 13.7772 82.2469 27.2551 107.187C40.7331 132.127 68.4939 145.302 90.7128 156.568C112.932 167.834 136.004 162.347 146.967 143.895C157.93 125.443 142.894 112.271 142.874 85.9587C142.853 59.6462 146.812 52.6802 132.554 30.4509C118.295 8.22159 83.3409 3.29895 56.9079 19.7869C30.475 36.2748 23.3679 57.479 23.3679 57.479Z" fill="#F3BFCE"/>
<path d="M87.9198 84.9037C91.315 87.924 92.003 91.7149 91.9136 96.3796C91.8242 101.044 93.9088 107.044 91.3701 110.387C88.8314 113.731 75.8557 113.098 74.404 106.345C72.9523 99.5925 75.6183 94.6905 75.8729 89.4308C76.1274 84.171 82.8217 80.3767 87.9198 84.9037Z" fill="#263238"/>
<path opacity="0.2" d="M90.479 97.3943C90.479 97.3943 91.652 107.026 89.2682 109.434" stroke="white" stroke-linecap="round" stroke-linejoin="round"/>
<path opacity="0.2" d="M87.2315 102.296C87.2315 102.296 87.5205 106.108 86.0894 107.8" stroke="white" stroke-linecap="round" stroke-linejoin="round"/>
<path opacity="0.2" d="M75.8555 98.7084C75.8555 98.7084 75.281 103.242 75.8555 105.76" stroke="white" stroke-linecap="round" stroke-linejoin="round"/>
<path d="M56.2406 78.9044L55.7831 73.5964C55.7831 73.5964 54.6479 70.3422 54.3864 68.347C54.125 66.3518 57.9399 62.9359 59.0339 62.9359C60.1278 62.9359 61.232 68.7839 61.232 68.7839L63.0415 69.4375C63.0415 69.4375 61.1976 72.819 59.5361 73.2215L60.2241 77.0777L56.2406 78.9044Z" fill="white" stroke="#263238" stroke-linecap="round" stroke-linejoin="round"/>
<path d="M61.0877 66.8265C60.9837 64.6076 60.6377 62.4067 60.0557 60.263C59.0959 56.7576 55.5664 54.5698 54.0941 53.0115C52.6218 51.4532 53.7501 50.1219 54.7477 50.3489C54.7477 50.3489 54.0941 49.6368 52.9692 50.4865C51.8444 51.3362 51.6173 53.1491 54.2317 55.7084C56.8461 58.2678 59.6601 64.2844 59.7357 66.8162L61.0877 66.8265Z" fill="#ECEFF1"/>
<path opacity="0.2" d="M61.0877 66.8265C60.9837 64.6076 60.6377 62.4067 60.0557 60.263C59.0959 56.7576 55.5664 54.5698 54.0941 53.0115C52.6218 51.4532 53.7501 50.1219 54.7477 50.3489C54.7477 50.3489 54.0941 49.6368 52.9692 50.4865C51.8444 51.3362 51.6173 53.1491 54.2317 55.7084C56.8461 58.2678 59.6601 64.2844 59.7357 66.8162L61.0877 66.8265Z" fill="black" fill-opacity="0.7"/>
<path d="M61.0877 66.8265C60.9837 64.6076 60.6377 62.4067 60.0557 60.263C59.0959 56.7576 55.5664 54.5698 54.0941 53.0115C52.6218 51.4532 53.7501 50.1219 54.7477 50.3489C54.7477 50.3489 54.0941 49.6368 52.9692 50.4865C51.8444 51.3362 51.6173 53.1491 54.2317 55.7084C56.8461 58.2678 59.6601 64.2844 59.7357 66.8162L61.0877 66.8265Z" stroke="#263238" stroke-linecap="round" stroke-linejoin="round"/>
<path d="M55.3943 54.2189L55.2223 54.0675C55.4409 53.5828 55.695 53.1148 55.9826 52.6674C55.9447 52.7569 55.6695 53.4105 55.3943 54.2189Z" fill="#ECEFF1" stroke="#263238" stroke-linecap="round" stroke-linejoin="round"/>
<path d="M57.8781 50.6585C57.9878 50.9948 57.9953 51.3561 57.8997 51.6966C57.8041 52.0372 57.6097 52.3418 57.341 52.5719C57.0723 52.8019 56.7414 52.9472 56.3902 52.9893C56.039 53.0314 55.6832 52.9684 55.3678 52.8082C55.0523 52.6481 54.7915 52.3981 54.6181 52.0897C54.4448 51.7814 54.3668 51.4286 54.3939 51.0759C54.4211 50.7232 54.5522 50.3865 54.7707 50.1083C54.9892 49.8301 55.2852 49.6229 55.6214 49.513C56.0726 49.3664 56.5635 49.4047 56.9865 49.6194C57.4095 49.8341 57.7301 50.2078 57.8781 50.6585Z" fill="#ECEFF1"/>
<path opacity="0.4" d="M57.8781 50.6585C57.9878 50.9948 57.9953 51.3561 57.8997 51.6966C57.8041 52.0372 57.6097 52.3418 57.341 52.5719C57.0723 52.8019 56.7414 52.9472 56.3902 52.9893C56.039 53.0314 55.6832 52.9684 55.3678 52.8082C55.0523 52.6481 54.7915 52.3981 54.6181 52.0897C54.4448 51.7814 54.3668 51.4286 54.3939 51.0759C54.4211 50.7232 54.5522 50.3865 54.7707 50.1083C54.9892 49.8301 55.2852 49.6229 55.6214 49.513C56.0726 49.3664 56.5635 49.4047 56.9865 49.6194C57.4095 49.8341 57.7301 50.2078 57.8781 50.6585Z" fill="white"/>
<path d="M57.8781 50.6585C57.9878 50.9948 57.9953 51.3561 57.8997 51.6966C57.8041 52.0372 57.6097 52.3418 57.341 52.5719C57.0723 52.8019 56.7414 52.9472 56.3902 52.9893C56.039 53.0314 55.6832 52.9684 55.3678 52.8082C55.0523 52.6481 54.7915 52.3981 54.6181 52.0897C54.4448 51.7814 54.3668 51.4286 54.3939 51.0759C54.4211 50.7232 54.5522 50.3865 54.7707 50.1083C54.9892 49.8301 55.2852 49.6229 55.6214 49.513C56.0726 49.3664 56.5635 49.4047 56.9865 49.6194C57.4095 49.8341 57.7301 50.2078 57.8781 50.6585V50.6585Z" stroke="#263238" stroke-linecap="round" stroke-linejoin="round"/>
<path d="M58.2188 54.0985C58.4527 54.7521 58.6247 56.0834 58.752 57.652C58.924 59.6885 59.0134 62.124 59.0616 63.9713C59.1098 65.6294 59.1201 66.8196 59.1201 66.8196L57.3038 67.7759C57.3038 67.7759 56.4713 68.1853 54.5793 62.8327C53.829 60.6194 53.7989 58.2254 54.4933 55.9939C54.6171 56.1212 54.741 56.2554 54.8579 56.3964C54.7547 57.1979 54.8132 57.91 55.2019 58.2712C55.4978 58.5395 55.8108 58.426 56.1066 58.0751C56.5939 57.3771 56.9301 56.5851 57.0939 55.7497C57.4001 54.4666 57.4895 53.0459 57.1421 52.2787C57.149 52.2787 57.4104 51.8247 58.2188 54.0985Z" fill="#ECEFF1" stroke="#263238" stroke-linecap="round" stroke-linejoin="round"/>
<path d="M58.5525 66.4378C56.5677 67.0879 55.1538 68.2094 55.3946 68.949L56.0826 71.013L63.2722 68.6703L62.6014 66.6063C62.3434 65.8667 60.5374 65.7945 58.5525 66.4378Z" fill="#999999" stroke="#263238" stroke-linecap="round" stroke-linejoin="round"/>
<path d="M63.2549 68.6669C63.4957 69.4065 62.0819 70.528 60.097 71.1747C58.1121 71.8214 56.313 71.7491 56.0653 71.0096C55.8176 70.27 57.2383 69.1485 59.2232 68.5018C61.2081 67.8551 63.0141 67.9273 63.2549 68.6669Z" fill="#757575" stroke="#263238" stroke-linecap="round" stroke-linejoin="round"/>
<path d="M54.3761 67.7828C54.3761 66.8471 55.2223 64.1399 55.2223 64.1399L56.557 62.2788C56.6989 62.3978 56.7947 62.5626 56.828 62.7448C56.8613 62.9269 56.8299 63.1149 56.7393 63.2764C56.3953 63.8234 55.9688 64.6524 55.9688 64.6524L55.6007 67.284" fill="white"/>
<path d="M54.3761 67.7828C54.3761 66.8471 55.2223 64.1399 55.2223 64.1399L56.557 62.2788C56.6989 62.3978 56.7947 62.5626 56.828 62.7448C56.8613 62.9269 56.8299 63.1149 56.7393 63.2764C56.3953 63.8234 55.9688 64.6524 55.9688 64.6524L55.6007 67.284" stroke="#263238" stroke-linecap="round" stroke-linejoin="round"/>
<path d="M55.3669 65.8771C55.8327 65.3138 56.3705 64.8142 56.9665 64.391L58.7071 63.8888C58.7071 63.8888 58.7828 64.8416 57.6476 65.2063L55.6008 67.2703" fill="white"/>
<path d="M55.3669 65.8771C55.8327 65.3138 56.3705 64.8142 56.9665 64.391L58.7071 63.8888C58.7071 63.8888 58.7828 64.8416 57.6476 65.2063L55.6008 67.2703" stroke="#263238" stroke-linecap="round" stroke-linejoin="round"/>
<path d="M55.367 66.8265L56.5572 66.1385H57.9642C57.9642 66.1385 58.088 66.8265 56.9322 67.112C55.7763 67.3976 55.2122 68.722 55.2122 68.722" fill="white"/>
<path d="M55.367 66.8265L56.5572 66.1385H57.9642C57.9642 66.1385 58.088 66.8265 56.9322 67.112C55.7763 67.3976 55.2122 68.722 55.2122 68.722" stroke="#263238" stroke-linecap="round" stroke-linejoin="round"/>
<path d="M73.2961 103.61C73.2961 103.61 65.1811 94.4394 64.273 92.8432C63.3648 91.2471 60.2344 74.7041 60.2344 74.7041C58.5399 74.8749 56.9373 75.5563 55.6386 76.658C55.6386 76.658 57.0146 97.2671 57.9227 98.6121C58.8309 99.9571 69.5052 114.092 69.5052 114.092L73.2961 103.61Z" fill="#ECEFF1"/>
<path opacity="0.2" d="M73.2961 103.607L69.5121 114.075L68.3494 112.537L63.7088 106.387C61.0394 102.833 58.3596 99.2485 57.9227 98.6018C57.0146 97.2567 55.6386 76.6511 55.6386 76.6511C56.9374 75.5491 58.5398 74.8666 60.2344 74.6938C60.2344 74.6938 63.3683 91.2402 64.273 92.8329C65.1777 94.4256 73.2961 103.607 73.2961 103.607Z" fill="black"/>
<path opacity="0.2" d="M69.5053 105.757C69.5053 105.757 68.8173 109.128 68.3425 112.537L63.7088 106.387L66.2132 107.797C66.2132 107.797 65.4048 105.571 65.4942 104.935C65.5836 104.298 67.8541 108.007 67.8541 108.007C67.8541 108.007 68.2565 106.483 69.5053 105.757Z" fill="black"/>
<path d="M73.2961 103.61C73.2961 103.61 65.1811 94.4394 64.273 92.8432C63.3648 91.2471 60.2344 74.7041 60.2344 74.7041C58.5399 74.8749 56.9373 75.5563 55.6386 76.658C55.6386 76.658 57.0146 97.2671 57.9227 98.6121C58.8309 99.9571 69.5052 114.092 69.5052 114.092L73.2961 103.61Z" stroke="#263238" stroke-linecap="round" stroke-linejoin="round"/>
<path d="M68.9996 107.573C68.4354 110.208 68.3666 113.765 68.3322 115.695C68.26 120.184 72.0371 131.519 72.0371 131.519C72.0371 131.519 79.581 134.412 87.2419 134.739C87.2419 134.739 90.7851 123.315 92.6909 116.132C93.5337 112.964 94.0669 110.628 93.8123 110.446C82.5325 102.19 77.2281 104.866 71.5555 101.615C71.0069 102.049 70.6047 102.641 70.4031 103.311" fill="#ECEFF1"/>
<path opacity="0.2" d="M92.6806 116.125C92.4295 117.075 92.1474 118.1 91.8515 119.163C89.9011 126.132 87.2316 134.736 87.2316 134.736C79.5707 134.392 72.0268 131.516 72.0268 131.516C72.0268 131.516 71.0189 128.485 70.0522 124.938C69.151 121.626 68.2875 117.862 68.3322 115.692C68.3666 113.755 68.4354 110.205 68.9996 107.573L70.3928 103.291C70.595 102.622 70.9972 102.031 71.5452 101.598C77.2178 104.849 82.5223 102.186 93.802 110.425C94.0428 110.618 93.5234 112.96 92.6806 116.125Z" fill="black"/>
<path opacity="0.2" d="M91.8515 119.163C89.9011 126.132 87.2316 134.736 87.2316 134.736C79.5707 134.392 72.0268 131.516 72.0268 131.516C72.0268 131.516 71.0189 128.485 70.0523 124.938C71.9583 126.4 73.9465 127.752 76.0069 128.987C76.0069 128.987 74.1149 123.359 76.3819 125.589C78.6488 127.818 83.3891 129.232 83.3891 129.232L81.7792 120.528L91.8515 119.163Z" fill="black"/>
<path d="M68.9996 107.573C68.4354 110.208 68.3666 113.765 68.3322 115.695C68.26 120.184 72.0371 131.519 72.0371 131.519C72.0371 131.519 79.581 134.412 87.2419 134.739C87.2419 134.739 90.7851 123.315 92.6909 116.132C93.5337 112.964 94.0669 110.628 93.8123 110.446C82.5325 102.19 77.2281 104.866 71.5555 101.615C71.0069 102.049 70.6047 102.641 70.4031 103.311" stroke="#263238" stroke-linecap="round" stroke-linejoin="round"/>
<path d="M91.1704 109.207C91.1704 109.207 84.9268 112.341 80.7953 110.748C75.2913 108.629 73.9566 103.218 73.9566 103.218C73.9566 103.218 79.4296 104.137 79.4365 103.397C79.4365 103.28 79.4365 102.998 79.3987 102.609C79.3402 101.712 79.2267 100.232 79.1132 98.846C78.9721 97.0469 78.8345 95.406 78.8345 95.406L85.7833 97.298C85.7833 97.298 84.968 104.395 85.6388 104.928C86.3096 105.461 91.1704 109.207 91.1704 109.207Z" fill="white" stroke="#263238" stroke-linecap="round" stroke-linejoin="round"/>
<path d="M85.0713 100.769C85.0713 100.769 82.4948 104.925 79.3988 102.609C79.3403 101.712 79.2268 100.232 79.1133 98.846L85.0713 100.769Z" fill="#263238"/>
<path d="M88.9517 94.4531C88.9517 94.4531 89.7394 93.8443 90.0456 94.1091C90.2463 94.3086 90.3854 94.5615 90.4464 94.8378C90.5074 95.1141 90.4877 95.4021 90.3896 95.6675C90.1247 96.2385 89.1822 97.1707 89.0377 97.7659C88.8932 98.361 88.3841 98.9974 87.985 98.533C87.586 98.0686 88.9517 94.4531 88.9517 94.4531Z" fill="white" stroke="#263238" stroke-linecap="round" stroke-linejoin="round"/>
<path d="M76.6674 92.7813C76.6674 92.7813 76.0722 91.9867 75.7042 92.169C75.4563 92.3061 75.2531 92.5117 75.1189 92.7612C74.9847 93.0107 74.9252 93.2935 74.9474 93.5759C75.0506 94.1986 75.7076 95.3475 75.687 95.9633C75.6663 96.5791 75.9862 97.3393 76.4954 96.9953C77.0045 96.6513 76.6674 92.7813 76.6674 92.7813Z" fill="white" stroke="#263238" stroke-linecap="round" stroke-linejoin="round"/>
<path d="M83.8295 84.9828C92.4879 86.1628 88.7177 96.3142 86.6228 99.7989C85.8832 101.024 82.8732 102.468 81.4628 102.279C80.159 102.1 77.7854 100.029 77.4208 98.736C76.3268 94.7937 75.5769 83.858 83.8295 84.9828Z" fill="white" stroke="#263238" stroke-linecap="round" stroke-linejoin="round"/>
<path d="M84.373 91.9626C84.373 91.9626 86.7226 91.5739 87.2317 93.0634" stroke="#263238" stroke-linecap="round" stroke-linejoin="round"/>
<path d="M81.7277 91.5945C81.7277 91.5945 79.5674 90.5935 78.6833 91.8904" stroke="#263238" stroke-linecap="round" stroke-linejoin="round"/>
<path d="M82.4982 93.6104C82.7011 94.3259 81.535 95.3544 81.8274 95.7397C82.1198 96.125 82.4638 96.5481 82.4638 96.5481" fill="white"/>
<path d="M82.4982 93.6104C82.7011 94.3259 81.535 95.3544 81.8274 95.7397C82.1198 96.125 82.4638 96.5481 82.4638 96.5481" stroke="#263238" stroke-linecap="round" stroke-linejoin="round"/>
<path d="M80.4514 97.3943V97.415C80.4531 97.5634 80.4715 97.7111 80.5064 97.8553C80.5839 98.2516 80.7889 98.6117 81.0902 98.8806C81.3914 99.1495 81.7723 99.3125 82.1748 99.3448C83.4545 99.5202 84.0599 97.8553 84.0599 97.8553C82.842 98.1631 81.5528 97.9984 80.4514 97.3943Z" fill="#757575"/>
<path d="M80.4514 97.3943V97.415L80.5064 97.8553C82.45 98.7944 83.6678 98.2853 83.6678 98.2853L84.0599 97.8553C82.842 98.1631 81.5528 97.9985 80.4514 97.3943Z" fill="white"/>
<path d="M80.4514 97.3943V97.415C80.4531 97.5634 80.4715 97.7111 80.5064 97.8553C80.5839 98.2516 80.7889 98.6117 81.0902 98.8806C81.3914 99.1495 81.7723 99.3125 82.1748 99.3448C83.4545 99.5202 84.0599 97.8553 84.0599 97.8553C82.842 98.1631 81.5528 97.9984 80.4514 97.3943V97.3943Z" stroke="#263238" stroke-linecap="round" stroke-linejoin="round"/>
<path d="M80.2552 97.2705C80.2552 97.2705 82.2504 98.447 84.2765 97.8175" stroke="#263238" stroke-linecap="round" stroke-linejoin="round"/>
<path d="M84.5725 94.0885C84.5725 94.0885 85.1952 93.5553 85.5701 94.2227" stroke="#263238" stroke-linecap="round" stroke-linejoin="round"/>
<path d="M79.8013 93.4384C79.8013 93.4384 80.4239 92.9052 80.7955 93.5725" stroke="#263238" stroke-linecap="round" stroke-linejoin="round"/>
<path d="M86.9118 88.1029C86.9118 88.1029 81.6005 88.1683 77.3658 89.8229L76.7363 94.4635L76.1412 92.1965C76.1412 92.1965 75.0507 86.6925 79.0824 84.3327C83.1141 81.9728 87.4244 84.0919 88.7453 85.6502C88.7453 85.6502 92.5672 88.5123 89.7189 94.03L88.3429 96.524L88.5768 94.4325C88.5768 94.4325 86.9669 90.3183 86.9118 88.1029Z" fill="#263238"/>
<path d="M78.0435 87.8346L78.3771 89.8091L77.7304 90.1119L77.4862 88.1098L78.0435 87.8346Z" fill="#ECEFF1" stroke="#263238" stroke-linecap="round" stroke-linejoin="round"/>
<path opacity="0.2" d="M87.2317 86.6409C87.2317 86.6409 82.0236 85.5642 78.6833 87.8346" stroke="white" stroke-linecap="round" stroke-linejoin="round"/>
<path opacity="0.2" d="M87.2317 85.2099C87.2317 85.2099 82.9764 82.826 78.6833 84.9037" stroke="white" stroke-linecap="round" stroke-linejoin="round"/>
<path opacity="0.2" d="M88.47 87.1225C88.47 87.1225 88.7659 92.021 91.1704 94.233" stroke="white" stroke-linecap="round" stroke-linejoin="round"/>
<path d="M66.54 106.17C66.9219 108.222 67.5611 110.218 68.4423 112.111" stroke="#263238" stroke-linecap="round" stroke-linejoin="round"/>
<path d="M64.2732 92.8432C64.2732 92.8432 60.8332 93.7652 59.7358 92.1552" stroke="#263238" stroke-linecap="round" stroke-linejoin="round"/>
<path d="M88.8348 111.203C88.8348 111.203 80.2348 114.378 76.7638 112.111" stroke="#263238" stroke-linecap="round" stroke-linejoin="round"/>
<path d="M73.9566 121.736C73.9566 121.736 76.7292 128.843 81.0912 129.913" stroke="#263238" stroke-linecap="round" stroke-linejoin="round"/>
<path d="M92.2127 115.241C91.7649 117.62 90.9526 119.915 89.8047 122.045C92.6737 127.99 95.6115 140.869 98.9379 140.735C99.9264 140.688 100.894 140.437 101.781 139.997C102.667 139.557 103.453 138.938 104.088 138.179C104.088 138.179 97.9369 113.108 93.8089 110.442C93.4243 110.955 93.0793 111.497 92.7769 112.062" fill="#ECEFF1"/>
<path opacity="0.2" d="M92.2127 115.241C91.7649 117.62 90.9526 119.915 89.8047 122.045C92.6737 127.99 95.6115 140.869 98.9379 140.735C99.9264 140.688 100.894 140.437 101.781 139.997C102.667 139.557 103.453 138.938 104.088 138.179C104.088 138.179 97.9369 113.108 93.8089 110.442C93.4243 110.955 93.0793 111.497 92.7769 112.062" fill="black"/>
<path d="M92.2127 115.241C91.7649 117.62 90.9526 119.915 89.8047 122.045C92.6737 127.99 95.6115 140.869 98.9379 140.735C99.9264 140.688 100.894 140.437 101.781 139.997C102.667 139.557 103.453 138.938 104.088 138.179C104.088 138.179 97.9369 113.108 93.8089 110.442C93.4243 110.955 93.0793 111.497 92.7769 112.062" stroke="#263238" stroke-linecap="round" stroke-linejoin="round"/>
<path d="M71.2254 128.991C71.2254 128.991 65.9932 142.654 66.2202 152.778C66.5401 166.841 69.5054 172.183 69.5054 172.183H93.6714C93.6714 172.183 99.5779 147.133 88.2396 131.447C88.2396 131.447 77.7064 132.046 71.2254 128.991Z" fill="#263238"/>
<path d="M73.5645 143.539C73.5645 143.539 74.4486 146.882 78.6832 150.594C78.6832 150.594 80.6853 162.441 80.7128 170.711" stroke="white" stroke-linecap="round" stroke-linejoin="round"/>
<path d="M83.8158 147.667C83.8158 147.667 80.3173 148.485 79.1202 149.937" stroke="white" stroke-linecap="round" stroke-linejoin="round"/>
<path d="M77.5239 135.066C77.5239 135.066 76.6536 145.678 78.0158 148.809" stroke="white" stroke-linecap="round" stroke-linejoin="round"/>
<path d="M76.1102 134.973C76.1102 134.973 75.4738 140.69 75.6561 142.503C75.8384 144.316 77.1388 144.681 77.1388 144.681" stroke="white" stroke-linecap="round" stroke-linejoin="round"/>
<path d="M77.2556 150.587C77.2556 150.587 74.1596 150.033 72.5979 147.673" stroke="white" stroke-linecap="round" stroke-linejoin="round"/>
<path d="M87.4105 136.27C87.4105 136.27 88.1776 140.143 91.1704 141.505" stroke="white" stroke-linecap="round" stroke-linejoin="round"/>
<path d="M89.2956 134.736C89.2956 134.736 94.3696 141.505 93.0383 147.673C93.0383 147.673 94.3524 161.918 93.0383 171.444" stroke="white" stroke-linecap="round" stroke-linejoin="round"/>
<path opacity="0.4" d="M71.4077 129.534C71.4077 129.534 76.0999 132.775 87.6686 131.942C87.9817 132.527 88.233 133.143 88.4185 133.779C88.4185 133.779 77.5997 135.971 70.9158 131.447L71.4077 129.534Z" fill="white"/>
<path d="M75.0883 131.206L74.7959 133.353C74.7822 133.453 74.8034 133.555 74.8561 133.641C74.9087 133.728 74.9895 133.794 75.0849 133.827C76.1819 134.212 77.3267 134.444 78.487 134.515C78.6023 134.521 78.7154 134.482 78.8026 134.407C78.8898 134.331 78.9444 134.224 78.9549 134.109L79.12 131.867C79.1289 131.755 79.0946 131.644 79.0242 131.557C78.9538 131.47 78.8526 131.413 78.7416 131.399C78.0536 131.299 76.5847 131.079 75.6284 130.845C75.5691 130.83 75.5073 130.828 75.4471 130.839C75.387 130.85 75.3296 130.873 75.2788 130.907C75.228 130.941 75.1849 130.985 75.1521 131.036C75.1193 131.088 75.0976 131.146 75.0883 131.206Z" fill="white" stroke="#263238" stroke-linecap="round" stroke-linejoin="round"/>
<path d="M82.278 131.708C82.5001 132.813 82.5924 133.94 82.5532 135.066H83.5852C83.872 133.965 83.872 132.809 83.5852 131.708H82.278Z" fill="#263238"/>
<path d="M72.8765 133.504C72.9773 132.381 73.2082 131.274 73.5645 130.205L72.5634 129.913C71.9778 130.888 71.651 131.996 71.614 133.133L72.8765 133.504Z" fill="#263238"/>
<path d="M116.509 114.092L84.0526 118.25L86.8269 139.906L119.283 135.749L116.509 114.092Z" fill="white" stroke="#263238" stroke-linecap="round" stroke-linejoin="round"/>
<path opacity="0.4" d="M118.125 134.839L115.613 115.229L85.2037 119.125L87.7157 138.734L118.125 134.839Z" fill="#ECEFF1"/>
<path d="M118.125 134.839L115.613 115.229L85.2037 119.125L87.7157 138.734L118.125 134.839Z" stroke="#263238" stroke-linecap="round" stroke-linejoin="round"/>
<path d="M113.766 122.021L88.7044 125.231L89.4138 130.769L114.476 127.558L113.766 122.021Z" fill="white" stroke="#263238" stroke-linecap="round" stroke-linejoin="round"/>
<path opacity="0.5" d="M110.878 120.291L91.081 122.826C90.9379 122.845 90.7932 122.806 90.6785 122.718C90.5638 122.631 90.4884 122.501 90.4687 122.358C90.4511 122.215 90.4906 122.07 90.5788 121.956C90.667 121.841 90.7967 121.766 90.94 121.746L110.737 119.211C110.881 119.192 111.026 119.231 111.141 119.32C111.256 119.408 111.331 119.538 111.35 119.682C111.367 119.825 111.327 119.969 111.239 120.083C111.151 120.198 111.021 120.272 110.878 120.291Z" fill="black"/>
<path opacity="0.5" d="M115.639 132.362L111.116 132.94C111.069 132.946 111.024 132.961 110.983 132.985C110.942 133.008 110.906 133.04 110.878 133.077C110.849 133.114 110.828 133.157 110.815 133.203C110.803 133.248 110.8 133.296 110.806 133.342C110.812 133.389 110.827 133.434 110.851 133.475C110.875 133.516 110.906 133.552 110.943 133.58C110.981 133.609 111.023 133.63 111.069 133.643C111.114 133.655 111.162 133.658 111.209 133.652L115.729 133.074C115.823 133.061 115.908 133.012 115.966 132.936C116.024 132.861 116.05 132.766 116.038 132.672C116.034 132.624 116.02 132.578 115.998 132.537C115.975 132.495 115.944 132.459 115.907 132.43C115.869 132.4 115.826 132.379 115.78 132.368C115.734 132.356 115.686 132.354 115.639 132.362Z" fill="black"/>
<path opacity="0.5" d="M95.2469 134.976L90.7233 135.554C90.6288 135.567 90.5432 135.616 90.4851 135.691C90.427 135.767 90.4013 135.862 90.4137 135.957C90.426 136.051 90.4753 136.137 90.5508 136.195C90.6263 136.253 90.7217 136.279 90.8161 136.266L95.3363 135.685C95.4303 135.673 95.5157 135.624 95.5737 135.55C95.6318 135.475 95.6578 135.38 95.6459 135.286C95.634 135.192 95.5853 135.107 95.5105 135.049C95.4357 134.99 95.3408 134.964 95.2469 134.976Z" fill="black"/>
<path opacity="0.5" d="M114.353 130.446L111.879 130.762C111.832 130.768 111.787 130.783 111.746 130.807C111.705 130.83 111.67 130.861 111.641 130.898C111.612 130.935 111.59 130.978 111.578 131.023C111.565 131.069 111.562 131.116 111.568 131.163C111.574 131.21 111.589 131.255 111.612 131.296C111.635 131.337 111.667 131.373 111.704 131.402C111.741 131.431 111.784 131.452 111.829 131.464C111.874 131.477 111.922 131.48 111.969 131.474L114.442 131.158C114.489 131.152 114.534 131.137 114.575 131.114C114.616 131.09 114.652 131.059 114.681 131.022C114.71 130.985 114.731 130.942 114.743 130.897C114.756 130.851 114.759 130.804 114.753 130.757C114.747 130.71 114.732 130.665 114.709 130.624C114.686 130.583 114.655 130.547 114.617 130.519C114.58 130.49 114.538 130.468 114.492 130.456C114.447 130.443 114.399 130.44 114.353 130.446Z" fill="black"/>
<path opacity="0.5" d="M93.9602 133.06L91.4868 133.377C91.44 133.383 91.3949 133.398 91.354 133.421C91.313 133.444 91.277 133.475 91.2481 133.513C91.2192 133.55 91.1979 133.592 91.1855 133.638C91.173 133.683 91.1696 133.731 91.1755 133.778C91.1814 133.824 91.1964 133.869 91.2197 133.91C91.243 133.951 91.2742 133.987 91.3114 134.016C91.3486 134.045 91.3911 134.066 91.4366 134.079C91.482 134.091 91.5295 134.095 91.5762 134.089L94.0496 133.769C94.1436 133.757 94.229 133.708 94.2871 133.634C94.3451 133.559 94.3711 133.464 94.3592 133.37C94.3473 133.276 94.2986 133.19 94.2238 133.132C94.149 133.074 94.0541 133.048 93.9602 133.06Z" fill="black"/>
<path opacity="0.5" d="M109.303 129.115L95.3086 130.907C95.2731 130.911 95.2389 130.923 95.2079 130.941C95.1769 130.959 95.1498 130.983 95.128 131.011C95.1063 131.04 95.0904 131.072 95.0812 131.107C95.0721 131.141 95.0699 131.178 95.0747 131.213C95.0789 131.248 95.0902 131.282 95.1077 131.313C95.1253 131.344 95.1489 131.372 95.1771 131.393C95.2052 131.415 95.2374 131.431 95.2718 131.44C95.3062 131.449 95.3421 131.452 95.3774 131.447L109.371 129.655C109.443 129.644 109.507 129.607 109.551 129.549C109.595 129.492 109.614 129.42 109.605 129.349C109.601 129.313 109.59 129.279 109.572 129.248C109.555 129.217 109.531 129.19 109.503 129.168C109.475 129.146 109.443 129.13 109.408 129.121C109.374 129.112 109.338 129.11 109.303 129.115Z" fill="black"/>
<path d="M91.6107 126.339C91.6816 126.197 91.805 126.088 91.9547 126.036L91.9238 125.798L92.3297 125.747L92.3606 125.981C92.5246 125.988 92.679 126.06 92.7906 126.18C92.9079 126.324 92.9786 126.501 92.9936 126.686V126.786L92.5223 126.848V126.717C92.519 126.632 92.4862 126.55 92.4294 126.486C92.4028 126.463 92.3713 126.447 92.3374 126.438C92.3034 126.429 92.2678 126.428 92.2333 126.435C92.1986 126.438 92.165 126.448 92.1347 126.465C92.1044 126.483 92.0782 126.506 92.0579 126.535C92.0201 126.61 92.0092 126.696 92.0269 126.779C92.0362 126.866 92.0656 126.95 92.1129 127.023C92.1589 127.09 92.2145 127.149 92.2781 127.199C92.3596 127.262 92.4446 127.32 92.5326 127.374C92.6445 127.439 92.7514 127.513 92.8525 127.594C92.9399 127.668 93.0143 127.757 93.0727 127.856C93.1508 127.996 93.1965 128.152 93.2066 128.312C93.2168 128.472 93.191 128.632 93.1312 128.781C93.0533 128.927 92.9211 129.037 92.7631 129.087L92.7906 129.318L92.3847 129.369L92.3572 129.139C92.2744 129.136 92.193 129.117 92.1179 129.082C92.0429 129.047 91.9756 128.997 91.9203 128.936C91.8031 128.792 91.7323 128.615 91.7174 128.43L91.6898 128.213L92.1611 128.155L92.1921 128.403C92.2196 128.605 92.3159 128.698 92.4879 128.678C92.6599 128.657 92.7356 128.54 92.7081 128.334C92.6977 128.246 92.667 128.163 92.6186 128.089C92.573 128.023 92.5187 127.963 92.4569 127.911C92.395 127.862 92.309 127.804 92.1989 127.735C92.0883 127.671 91.9825 127.598 91.8825 127.518C91.7941 127.444 91.7186 127.356 91.6589 127.257C91.59 127.139 91.5467 127.008 91.5316 126.872C91.5043 126.69 91.5318 126.504 91.6107 126.339Z" fill="#263238"/>
<path d="M94.5829 125.995C94.6428 125.956 94.6915 125.903 94.7239 125.84C94.7554 125.767 94.7807 125.693 94.7996 125.616L95.1436 125.571L95.5461 128.736L95.0507 128.798L94.7411 126.39L94.3558 126.438L94.3111 126.094C94.4078 126.081 94.5004 126.047 94.5829 125.995Z" fill="#263238"/>
<path d="M95.9074 125.65C96.0465 125.497 96.2359 125.398 96.4415 125.371C96.6471 125.345 96.8554 125.393 97.0289 125.506C97.1883 125.652 97.2855 125.854 97.3007 126.07L97.5105 127.714C97.5513 127.926 97.5081 128.146 97.3901 128.327C97.3262 128.409 97.2455 128.476 97.1536 128.524C97.0616 128.572 96.9605 128.6 96.8569 128.605C96.7549 128.625 96.6499 128.624 96.5486 128.6C96.4473 128.577 96.352 128.533 96.2686 128.471C96.1102 128.325 96.0142 128.123 96.0003 127.907L95.7905 126.263C95.7491 126.051 95.791 125.832 95.9074 125.65ZM96.7984 128.155C96.9704 128.134 97.0427 128.017 97.0151 127.811L96.7984 126.091C96.7709 125.884 96.6711 125.792 96.4991 125.812C96.3271 125.833 96.2549 125.95 96.2824 126.156L96.5026 127.876C96.5198 128.089 96.6264 128.182 96.7984 128.162V128.155Z" fill="#263238"/>
<path d="M97.6996 125.427C97.8381 125.273 98.0272 125.175 98.2324 125.149C98.4376 125.123 98.6452 125.172 98.8176 125.286C98.9767 125.431 99.074 125.632 99.0893 125.847L99.2992 127.491C99.3203 127.596 99.3205 127.704 99.2999 127.809C99.2792 127.914 99.2381 128.014 99.1788 128.103C99.0414 128.259 98.8525 128.359 98.6469 128.385C98.4413 128.412 98.2331 128.363 98.0608 128.248C97.9016 128.103 97.8043 127.902 97.789 127.687L97.5792 126.039C97.5391 125.827 97.5822 125.608 97.6996 125.427ZM98.5871 127.931C98.7591 127.911 98.8348 127.797 98.8072 127.587L98.5871 125.867C98.5596 125.657 98.4632 125.565 98.2912 125.585C98.1192 125.606 98.047 125.723 98.0711 125.929L98.2912 127.649C98.3188 127.862 98.4185 127.955 98.5836 127.931H98.5871Z" fill="#263238"/>
<path d="M100.197 128.148L99.7188 128.21L99.6569 127.732L100.135 127.67L100.197 128.148Z" fill="#263238"/>
<path d="M100.328 125.09C100.467 124.936 100.656 124.837 100.862 124.811C101.068 124.785 101.276 124.834 101.449 124.949C101.608 125.093 101.705 125.295 101.717 125.509L101.931 127.157C101.969 127.369 101.926 127.588 101.81 127.77C101.671 127.923 101.481 128.022 101.276 128.048C101.07 128.074 100.862 128.025 100.689 127.911C100.529 127.766 100.433 127.565 100.42 127.35L100.207 125.706C100.168 125.492 100.211 125.273 100.328 125.09ZM101.219 127.594C101.391 127.573 101.463 127.457 101.435 127.25L101.219 125.53C101.191 125.319 101.091 125.226 100.919 125.251C100.747 125.272 100.675 125.386 100.703 125.595L100.919 127.315C100.947 127.526 101.047 127.619 101.219 127.594Z" fill="#263238"/>
<path d="M102.116 124.863C102.181 124.782 102.262 124.715 102.354 124.667C102.446 124.618 102.546 124.589 102.65 124.581C102.752 124.561 102.857 124.564 102.958 124.587C103.06 124.611 103.155 124.656 103.238 124.718C103.398 124.864 103.495 125.066 103.51 125.282L103.719 126.927C103.76 127.139 103.717 127.358 103.599 127.539C103.535 127.621 103.454 127.688 103.362 127.736C103.271 127.784 103.169 127.812 103.066 127.818C102.964 127.838 102.859 127.836 102.758 127.813C102.656 127.79 102.561 127.746 102.478 127.684C102.319 127.537 102.223 127.335 102.209 127.119L101.999 125.475C101.958 125.264 102 125.044 102.116 124.863ZM103.007 127.367C103.179 127.343 103.252 127.229 103.224 127.023L103.007 125.303C102.98 125.094 102.88 125.001 102.708 125.024C102.54 125.045 102.464 125.162 102.491 125.368L102.712 127.088C102.739 127.295 102.835 127.388 103.007 127.371V127.367Z" fill="#263238"/>
<path d="M103.905 124.619C104.045 124.465 104.234 124.367 104.44 124.34C104.645 124.314 104.853 124.361 105.027 124.474C105.186 124.62 105.284 124.822 105.299 125.038L105.508 126.682C105.549 126.894 105.506 127.114 105.388 127.295C105.25 127.448 105.061 127.547 104.856 127.574C104.651 127.6 104.443 127.552 104.27 127.439C104.111 127.293 104.013 127.091 103.998 126.875L103.789 125.231C103.747 125.019 103.789 124.8 103.905 124.619ZM104.796 127.123C104.968 127.099 105.041 126.985 105.017 126.779L104.796 125.059C104.769 124.852 104.669 124.76 104.497 124.78C104.329 124.801 104.253 124.918 104.28 125.124L104.501 126.844C104.528 127.064 104.624 127.157 104.796 127.137V127.123Z" fill="#263238"/>
<path d="M106.406 127.371L105.928 127.432L105.866 126.954L106.344 126.892L106.406 127.371Z" fill="#263238"/>
<path d="M106.537 124.295C106.601 124.213 106.682 124.146 106.774 124.098C106.866 124.05 106.967 124.022 107.07 124.017C107.172 123.997 107.277 123.998 107.379 124.022C107.48 124.045 107.575 124.089 107.658 124.151C107.818 124.297 107.914 124.499 107.927 124.715L108.137 126.359C108.178 126.571 108.136 126.79 108.02 126.971C107.955 127.053 107.875 127.12 107.783 127.168C107.691 127.216 107.59 127.244 107.486 127.25C107.384 127.27 107.279 127.268 107.178 127.245C107.077 127.222 106.982 127.178 106.898 127.116C106.739 126.97 106.642 126.768 106.63 126.552L106.417 124.907C106.378 124.695 106.421 124.477 106.537 124.295ZM107.428 126.799C107.6 126.779 107.672 126.662 107.645 126.455L107.425 124.735C107.4 124.529 107.301 124.436 107.129 124.457C106.957 124.477 106.884 124.594 106.912 124.801L107.129 126.521C107.165 126.727 107.265 126.82 107.428 126.799Z" fill="#263238"/>
<path d="M108.326 124.065C108.39 123.984 108.471 123.917 108.563 123.869C108.655 123.821 108.756 123.793 108.859 123.786C108.961 123.766 109.067 123.768 109.168 123.791C109.269 123.815 109.365 123.86 109.447 123.924C109.606 124.069 109.704 124.269 109.719 124.484L109.929 126.129C109.97 126.341 109.926 126.56 109.808 126.741C109.671 126.897 109.481 126.997 109.275 127.023C109.069 127.05 108.86 127.001 108.687 126.885C108.529 126.74 108.433 126.539 108.419 126.325L108.209 124.677C108.168 124.465 108.21 124.246 108.326 124.065ZM109.217 126.569C109.389 126.548 109.461 126.431 109.434 126.225L109.217 124.505C109.189 124.295 109.09 124.202 108.918 124.223C108.746 124.244 108.673 124.361 108.701 124.567L108.921 126.287C108.945 126.5 109.045 126.593 109.217 126.569Z" fill="#263238"/>
<path d="M110.114 123.838C110.179 123.756 110.26 123.688 110.353 123.64C110.445 123.591 110.547 123.562 110.651 123.556C110.753 123.536 110.857 123.539 110.958 123.562C111.059 123.586 111.153 123.631 111.236 123.693C111.395 123.84 111.492 124.041 111.508 124.257L111.717 125.902C111.758 126.114 111.715 126.333 111.597 126.514C111.459 126.667 111.27 126.766 111.065 126.793C110.86 126.819 110.652 126.772 110.479 126.658C110.32 126.512 110.222 126.31 110.207 126.094L109.997 124.45C109.956 124.238 109.998 124.019 110.114 123.838ZM111.005 126.342C111.177 126.318 111.25 126.204 111.226 125.998L111.005 124.278C110.978 124.068 110.878 123.975 110.71 123.999C110.541 124.023 110.462 124.137 110.489 124.343L110.71 126.063C110.737 126.27 110.833 126.363 111.005 126.339V126.342Z" fill="#263238"/>
<path opacity="0.5" d="M107.903 118.196L93.9086 119.988C93.837 119.997 93.7719 120.035 93.7278 120.092C93.6836 120.149 93.6639 120.221 93.673 120.293C93.6821 120.364 93.7193 120.429 93.7764 120.474C93.8335 120.518 93.9058 120.537 93.9774 120.528L107.971 118.736C108.008 118.732 108.043 118.72 108.075 118.703C108.107 118.685 108.135 118.661 108.158 118.632C108.18 118.603 108.197 118.57 108.207 118.535C108.217 118.5 108.22 118.463 108.216 118.426C108.205 118.354 108.165 118.29 108.107 118.247C108.048 118.203 107.975 118.185 107.903 118.196Z" fill="black"/>
<path d="M101.724 139.101C101.986 140.164 105.704 138.612 105.973 138C106.241 137.388 105.997 136.001 105.997 136.001C105.997 136.001 105.027 134.643 104.679 134.474C103.936 134.103 103.991 134.918 103.991 134.918C103.991 134.918 103.603 134.192 103.248 134.127C102.54 133.999 102.739 135.355 102.739 135.355C102.251 134.395 101.556 135.255 102.079 136.638C102.092 136.638 100.685 134.918 101.724 139.101Z" fill="white" stroke="#263238" stroke-linecap="round" stroke-linejoin="round"/>
<path d="M104.005 134.918C104.005 134.918 104.483 135.878 104.673 136.335C104.826 136.866 104.924 137.411 104.965 137.962" stroke="#263238" stroke-linecap="round" stroke-linejoin="round"/>
<path d="M102.753 135.355C102.753 135.355 103.248 136.466 103.365 136.841C103.482 137.216 103.651 138.313 103.651 138.313" stroke="#263238" stroke-linecap="round" stroke-linejoin="round"/>
<path d="M102.092 136.638C102.196 136.826 102.279 137.024 102.34 137.23C102.416 137.515 102.426 138.313 102.505 138.42" stroke="#263238" stroke-linecap="round" stroke-linejoin="round"/>
<path d="M74.9337 104.536C74.9337 104.536 78.3289 107.938 79.1133 108.279C79.8976 108.619 80.2037 109.909 80.2037 109.909" stroke="#263238" stroke-linecap="round" stroke-linejoin="round"/>
<path d="M81.0913 110.171C81.0913 110.171 81.7552 109.139 82.254 109.421C82.7528 109.703 88.8347 109.421 88.8347 109.421" stroke="#263238" stroke-linecap="round" stroke-linejoin="round"/>
</g>
<defs>
<clipPath id="clip0_1_1737">
<rect width="172" height="172" fill="white"/>
</clipPath>
</defs>
</svg>
