

<svg width="60" height="60" viewBox="0 0 60 60" fill="none" xmlns="http://www.w3.org/2000/svg">
<circle cx="30" cy="30" r="30" fill="#C2EFF0"/>
<path d="M34.8074 23.6728C33.9354 23.8698 33.1212 24.3056 32.7358 24.7834C32.6057 24.9468 32.4852 25.1689 32.3889 25.4413C31.8686 26.9039 31.4012 27.6163 30.3702 28.5173C29.2814 29.4686 28.0818 30.0386 26.5642 30.3235C26.1354 30.4032 25.9137 30.4157 25.0947 30.4157C24.2853 30.4157 24.0541 30.4032 23.6446 30.3235C22.6617 30.1392 21.7126 29.7955 20.9418 29.3429L20.5467 29.1082L20.4022 29.4309C20.0264 30.2858 19.9011 30.8767 19.9011 31.7819C19.9011 32.8673 20.1227 33.6468 20.7539 34.7783C21.173 35.5243 21.6355 36.1361 22.1896 36.6893C22.416 36.9114 22.6665 37.1796 22.7533 37.2886C23.158 37.7957 23.4422 38.5668 23.5048 39.3001C23.5386 39.6689 23.553 39.7276 23.6735 39.8449L23.8084 39.9749H25.6729H27.5373L27.6771 39.8366C27.812 39.7066 27.8168 39.6899 27.8168 39.2624V38.8266L27.9758 38.8559C28.0577 38.8727 28.6454 38.8853 29.2718 38.8853H30.4184V39.2918C30.4184 39.6857 30.4232 39.7066 30.5581 39.8366L30.6978 39.9749L32.5334 39.9874L34.369 40L34.5424 39.8575L34.7207 39.715L34.7544 39.0277C34.7833 38.4075 34.8026 38.3111 34.923 38.0471C35.1447 37.5652 35.3904 37.2802 36.089 36.6809C37.1874 35.7464 37.9101 34.8035 38.2473 33.8689L38.3341 33.6342L38.8207 33.6175C39.3988 33.6007 39.6156 33.5253 39.8372 33.2529L39.9817 33.0727L39.9962 31.8113C40.0107 30.4577 39.9962 30.3277 39.7842 30.1056C39.5674 29.8835 39.4084 29.8332 38.8303 29.8123L38.3003 29.7913L38.151 29.4561C37.7463 28.5509 37.1633 27.7965 36.2624 27.0212C35.6361 26.4764 35.6265 26.4681 35.5686 26.2124C35.4482 25.6802 35.5686 25.1522 35.9589 24.4858C36.1757 24.117 36.1853 24.0416 36.0745 23.8363C35.9155 23.5471 35.5686 23.501 34.8074 23.6728ZM35.4241 28.6808C35.6024 28.7897 35.7662 29.0579 35.7662 29.2465C35.7662 29.4351 35.6024 29.7033 35.4241 29.8123C35.3181 29.8793 35.1784 29.917 35.0001 29.9296C34.687 29.9464 34.475 29.85 34.2823 29.6027C34.1859 29.477 34.1715 29.4183 34.1859 29.1962C34.2052 28.9155 34.2919 28.7939 34.5858 28.6305C34.7882 28.5173 35.2073 28.5425 35.4241 28.6808Z" fill="#265859"/>
<ellipse cx="25.1837" cy="23.3925" rx="6.18366" ry="5.39245" fill="#265859"/>
</svg>

