<svg width="25" height="24" viewBox="0 0 25 24" fill="none" xmlns="http://www.w3.org/2000/svg">
<path fill-rule="evenodd" clip-rule="evenodd" d="M15.1948 7.76241C15.1948 10.4062 13.0314 12.5248 10.3318 12.5248C7.63313 12.5248 5.46874 10.4062 5.46874 7.76241C5.46874 5.11865 7.63313 3 10.3318 3C13.0314 3 15.1948 5.11865 15.1948 7.76241ZM2.98242 17.9174C2.98242 15.47 6.36795 14.8577 10.3318 14.8577C14.3171 14.8577 17.6811 15.4911 17.6811 17.9404C17.6811 20.3877 14.2956 21 10.3318 21C6.34642 21 2.98242 20.3666 2.98242 17.9174ZM17.1559 7.84875C17.1559 9.19506 16.7429 10.4513 16.0189 11.4948C15.9435 11.6021 16.0101 11.7468 16.1412 11.7698C16.3232 11.7995 16.5101 11.8177 16.7009 11.8216C18.5991 11.8704 20.3026 10.6736 20.7733 8.87118C21.4709 6.19676 19.424 3.79543 16.8163 3.79543C16.5335 3.79543 16.2625 3.82418 15.9983 3.87688C15.9621 3.88454 15.923 3.90179 15.9034 3.93246C15.878 3.97174 15.8966 4.02253 15.922 4.05607C16.7058 5.13216 17.1559 6.44206 17.1559 7.84875ZM20.2997 13.7023C21.5756 13.9466 22.4142 14.444 22.7615 15.1694C23.0561 15.7635 23.0561 16.4534 22.7615 17.0475C22.2302 18.1705 20.5159 18.5318 19.8496 18.6247C19.7116 18.6439 19.6011 18.5289 19.6157 18.3928C19.9562 15.2805 17.2488 13.8048 16.5482 13.4656C16.5189 13.4493 16.512 13.4263 16.5149 13.411C16.5169 13.4014 16.5296 13.3861 16.5521 13.3832C18.0678 13.3545 19.6979 13.5586 20.2997 13.7023Z" fill="#7C7F93"/>
</svg>
